# MagicaVoxel @ Ephtracy

# group
o 

# material
mtllib pers-1.mtl
usemtl palette

# normals
vn -1 0 0
vn 1 0 0
vn 0 0 1
vn 0 0 -1
vn 0 -1 0
vn 0 1 0

# texcoords
vt 0.208984 0.5
vt 0.212891 0.5
vt 0.560547 0.5
vt 0.642578 0.5
vt 0.810547 0.5
vt 0.958984 0.5
vt 0.966797 0.5
vt 0.990234 0.5

# verts
v 23.4 -2.7 -0.1
v 23.4 -2.7 -0.7
v 23.4 -1.7 -0.1
v 23.4 -1.7 -0.7
v 23.5 -2.7 0.1
v 23.5 -2.7 -0.1
v 23.5 -2.7 -0.7
v 23.5 -2.7 -0.9
v 23.5 -1.7 0.1
v 23.5 -1.7 -0.1
v 23.5 -1.7 -0.7
v 23.5 -1.7 -0.9
v 23.6 -2.7 0.2
v 23.6 -2.7 0.1
v 23.6 -2.7 -0.9
v 23.6 -2.7 -1
v 23.6 -1.7 0.2
v 23.6 -1.7 0.1
v 23.6 -1.7 -0.9
v 23.6 -1.7 -1
v 23.8 -2.7 0.3
v 23.8 -2.7 0.2
v 23.8 -2.7 -1
v 23.8 -2.7 -1.1
v 23.8 -1.7 0.3
v 23.8 -1.7 0.2
v 23.8 -1.7 -1
v 23.8 -1.7 -1.1
v 24 -2.6 0.4
v 24 -2.6 0.3
v 24 -2.6 -1.1
v 24 -2.6 -1.2
v 24 -2.3 0.4
v 24 -2.3 0.3
v 24 -2.3 -1.1
v 24 -2.3 -1.2
v 24 -2.1 0.3
v 24 -2.1 -1.1
v 24 -2 0.4
v 24 -2 0.3
v 24 -2 -1.1
v 24 -2 -1.2
v 24 -1.8 0.4
v 24 -1.8 0.3
v 24 -1.8 -1.1
v 24 -1.8 -1.2
v 25.3 -1.9 0.4
v 25.3 -1.9 0.3
v 25.3 -1.9 -1.1
v 25.3 -1.9 -1.2
v 25.3 -1.8 0.4
v 25.3 -1.8 0.3
v 25.3 -1.8 -1.1
v 25.3 -1.8 -1.2
v 26.1 -1.9 0.3
v 26.1 -1.9 -1.1
v 26.1 -1.7 0.3
v 26.1 -1.7 -1.1
v 26.2 -2 0.4
v 26.2 -2 0.3
v 26.2 -2 -1.1
v 26.2 -2 -1.2
v 26.2 -1.9 0.4
v 26.2 -1.9 0.3
v 26.2 -1.9 -1.1
v 26.2 -1.9 -1.2
v 26.4 -2 0.3
v 26.4 -2 -1.1
v 26.4 -1.9 0.3
v 26.4 -1.9 -1.1
v 26.7 -2.1 0.4
v 26.7 -2.1 0.3
v 26.7 -2.1 -1.1
v 26.7 -2.1 -1.2
v 26.7 -2 0.4
v 26.7 -2 0.3
v 26.7 -2 -1.1
v 26.7 -2 -1.2
v 26.9 -2.1 0.3
v 26.9 -2.1 -1.1
v 26.9 -2 0.3
v 26.9 -2 -1.1
v 27.1 -2.2 0.4
v 27.1 -2.2 0.3
v 27.1 -2.2 -1.1
v 27.1 -2.2 -1.2
v 27.1 -2.1 0.4
v 27.1 -2.1 0.3
v 27.1 -2.1 -1.1
v 27.1 -2.1 -1.2
v 27.3 -2.4 0.4
v 27.3 -2.4 0.3
v 27.3 -2.4 -1.1
v 27.3 -2.4 -1.2
v 27.3 -2.2 0.4
v 27.3 -2.2 0.3
v 27.3 -2.2 -1.1
v 27.3 -2.2 -1.2
v 27.4 -2.2 0.3
v 27.4 -2.2 -1.1
v 27.4 -2.1 0.3
v 27.4 -2.1 -1.1
v 27.5 -2.6 0.4
v 27.5 -2.6 0.3
v 27.5 -2.6 -1.1
v 27.5 -2.6 -1.2
v 27.5 -2.4 0.4
v 27.5 -2.4 0.3
v 27.5 -2.4 -1.1
v 27.5 -2.4 -1.2
v 27.6 -2.3 0.3
v 27.6 -2.3 -1.1
v 27.6 -2.2 0.3
v 27.6 -2.2 -1.1
v 27.7 -2.7 0.3
v 27.7 -2.7 -1.1
v 27.7 -2.6 0.3
v 27.7 -2.6 -1.1
v 27.7 -2.4 0.3
v 27.7 -2.4 -1.1
v 27.7 -2.3 0.3
v 27.7 -2.3 -1.1
v 27.8 -2.6 0.3
v 27.8 -2.6 -1.1
v 27.8 -2.4 0.3
v 27.8 -2.4 -1.1
v 24 -2.6 0.4
v 24 -2.3 0.4
v 24 -2 0.4
v 24 -1.8 0.4
v 24.4 -2.3 0.4
v 24.4 -2.2 0.4
v 25 -2.3 0.4
v 25 -2.2 0.4
v 25.3 -2.1 0.4
v 25.3 -2 0.4
v 25.3 -1.9 0.4
v 25.3 -1.8 0.4
v 26 -2.3 0.4
v 26 -2.2 0.4
v 26.2 -2.2 0.4
v 26.2 -2.1 0.4
v 26.2 -2 0.4
v 26.2 -1.9 0.4
v 26.7 -2.1 0.4
v 26.7 -2 0.4
v 27.1 -2.2 0.4
v 27.1 -2.1 0.4
v 27.3 -2.4 0.4
v 27.3 -2.2 0.4
v 27.5 -2.6 0.4
v 27.5 -2.4 0.4
v 23.8 -2.7 0.3
v 23.8 -1.7 0.3
v 23.9 -2.3 0.3
v 23.9 -2.1 0.3
v 24 -2.6 0.3
v 24 -2.3 0.3
v 24 -2.1 0.3
v 24 -2 0.3
v 24 -1.8 0.3
v 25.3 -1.9 0.3
v 25.3 -1.8 0.3
v 26.1 -1.9 0.3
v 26.1 -1.7 0.3
v 26.2 -2 0.3
v 26.2 -1.9 0.3
v 26.4 -2 0.3
v 26.4 -1.9 0.3
v 26.7 -2.1 0.3
v 26.7 -2 0.3
v 26.9 -2.1 0.3
v 26.9 -2 0.3
v 27.1 -2.2 0.3
v 27.1 -2.1 0.3
v 27.3 -2.4 0.3
v 27.3 -2.2 0.3
v 27.4 -2.2 0.3
v 27.4 -2.1 0.3
v 27.5 -2.6 0.3
v 27.5 -2.4 0.3
v 27.6 -2.3 0.3
v 27.6 -2.2 0.3
v 27.7 -2.7 0.3
v 27.7 -2.6 0.3
v 27.7 -2.4 0.3
v 27.7 -2.3 0.3
v 27.8 -2.6 0.3
v 27.8 -2.4 0.3
v 23.6 -2.7 0.2
v 23.6 -1.7 0.2
v 23.8 -2.7 0.2
v 23.8 -1.7 0.2
v 23.5 -2.7 0.1
v 23.5 -1.7 0.1
v 23.6 -2.7 0.1
v 23.6 -1.7 0.1
v 23.4 -2.7 -0.1
v 23.4 -1.7 -0.1
v 23.5 -2.7 -0.1
v 23.5 -1.7 -0.1
v 23.4 -2.7 -0.7
v 23.4 -1.7 -0.7
v 23.5 -2.7 -0.7
v 23.5 -1.7 -0.7
v 23.5 -2.7 -0.9
v 23.5 -1.7 -0.9
v 23.6 -2.7 -0.9
v 23.6 -1.7 -0.9
v 23.6 -2.7 -1
v 23.6 -1.7 -1
v 23.8 -2.7 -1
v 23.8 -1.7 -1
v 23.8 -2.7 -1.1
v 23.8 -1.7 -1.1
v 23.9 -2.3 -1.1
v 23.9 -2.1 -1.1
v 24 -2.6 -1.1
v 24 -2.3 -1.1
v 24 -2.1 -1.1
v 24 -2 -1.1
v 24 -1.8 -1.1
v 25.3 -1.9 -1.1
v 25.3 -1.8 -1.1
v 26.1 -1.9 -1.1
v 26.1 -1.7 -1.1
v 26.2 -2 -1.1
v 26.2 -1.9 -1.1
v 26.4 -2 -1.1
v 26.4 -1.9 -1.1
v 26.7 -2.1 -1.1
v 26.7 -2 -1.1
v 26.9 -2.1 -1.1
v 26.9 -2 -1.1
v 27.1 -2.2 -1.1
v 27.1 -2.1 -1.1
v 27.3 -2.4 -1.1
v 27.3 -2.2 -1.1
v 27.4 -2.2 -1.1
v 27.4 -2.1 -1.1
v 27.5 -2.6 -1.1
v 27.5 -2.4 -1.1
v 27.6 -2.3 -1.1
v 27.6 -2.2 -1.1
v 27.7 -2.7 -1.1
v 27.7 -2.6 -1.1
v 27.7 -2.4 -1.1
v 27.7 -2.3 -1.1
v 27.8 -2.6 -1.1
v 27.8 -2.4 -1.1
v 24 -2.6 -1.2
v 24 -2.3 -1.2
v 24 -2 -1.2
v 24 -1.8 -1.2
v 24.4 -2.3 -1.2
v 24.4 -2.2 -1.2
v 25 -2.3 -1.2
v 25 -2.2 -1.2
v 25.3 -2.1 -1.2
v 25.3 -2 -1.2
v 25.3 -1.9 -1.2
v 25.3 -1.8 -1.2
v 26 -2.3 -1.2
v 26 -2.2 -1.2
v 26.2 -2.2 -1.2
v 26.2 -2.1 -1.2
v 26.2 -2 -1.2
v 26.2 -1.9 -1.2
v 26.7 -2.1 -1.2
v 26.7 -2 -1.2
v 27.1 -2.2 -1.2
v 27.1 -2.1 -1.2
v 27.3 -2.4 -1.2
v 27.3 -2.2 -1.2
v 27.5 -2.6 -1.2
v 27.5 -2.4 -1.2
v 23.8 -2.7 0.3
v 27.7 -2.7 0.3
v 23.6 -2.7 0.2
v 23.8 -2.7 0.2
v 23.5 -2.7 0.1
v 23.6 -2.7 0.1
v 23.4 -2.7 -0.1
v 23.5 -2.7 -0.1
v 23.4 -2.7 -0.7
v 23.5 -2.7 -0.7
v 23.5 -2.7 -0.9
v 23.6 -2.7 -0.9
v 23.6 -2.7 -1
v 23.8 -2.7 -1
v 23.8 -2.7 -1.1
v 27.7 -2.7 -1.1
v 24 -2.6 0.4
v 27.5 -2.6 0.4
v 24 -2.6 0.3
v 27.5 -2.6 0.3
v 27.7 -2.6 0.3
v 27.8 -2.6 0.3
v 24 -2.6 -1.1
v 27.5 -2.6 -1.1
v 27.7 -2.6 -1.1
v 27.8 -2.6 -1.1
v 24 -2.6 -1.2
v 27.5 -2.6 -1.2
v 27.3 -2.4 0.4
v 27.5 -2.4 0.4
v 27.3 -2.4 0.3
v 27.5 -2.4 0.3
v 27.7 -2.4 0.3
v 27.8 -2.4 0.3
v 27.3 -2.4 -1.1
v 27.5 -2.4 -1.1
v 27.7 -2.4 -1.1
v 27.8 -2.4 -1.1
v 27.3 -2.4 -1.2
v 27.5 -2.4 -1.2
v 27.6 -2.3 0.3
v 27.7 -2.3 0.3
v 27.6 -2.3 -1.1
v 27.7 -2.3 -1.1
v 27.1 -2.2 0.4
v 27.3 -2.2 0.4
v 27.1 -2.2 0.3
v 27.3 -2.2 0.3
v 27.4 -2.2 0.3
v 27.6 -2.2 0.3
v 27.1 -2.2 -1.1
v 27.3 -2.2 -1.1
v 27.4 -2.2 -1.1
v 27.6 -2.2 -1.1
v 27.1 -2.2 -1.2
v 27.3 -2.2 -1.2
v 26.7 -2.1 0.4
v 27.1 -2.1 0.4
v 26.7 -2.1 0.3
v 26.9 -2.1 0.3
v 27.1 -2.1 0.3
v 27.4 -2.1 0.3
v 26.7 -2.1 -1.1
v 26.9 -2.1 -1.1
v 27.1 -2.1 -1.1
v 27.4 -2.1 -1.1
v 26.7 -2.1 -1.2
v 27.1 -2.1 -1.2
v 26.2 -2 0.4
v 26.7 -2 0.4
v 26.2 -2 0.3
v 26.4 -2 0.3
v 26.7 -2 0.3
v 26.9 -2 0.3
v 26.2 -2 -1.1
v 26.4 -2 -1.1
v 26.7 -2 -1.1
v 26.9 -2 -1.1
v 26.2 -2 -1.2
v 26.7 -2 -1.2
v 25.3 -1.9 0.4
v 26.2 -1.9 0.4
v 25.3 -1.9 0.3
v 26.1 -1.9 0.3
v 26.2 -1.9 0.3
v 26.4 -1.9 0.3
v 25.3 -1.9 -1.1
v 26.1 -1.9 -1.1
v 26.2 -1.9 -1.1
v 26.4 -1.9 -1.1
v 25.3 -1.9 -1.2
v 26.2 -1.9 -1.2
v 24 -1.8 0.4
v 25.3 -1.8 0.4
v 24 -1.8 0.3
v 25.3 -1.8 0.3
v 24 -1.8 -1.1
v 25.3 -1.8 -1.1
v 24 -1.8 -1.2
v 25.3 -1.8 -1.2
v 23.8 -1.7 0.3
v 26.1 -1.7 0.3
v 23.6 -1.7 0.2
v 23.8 -1.7 0.2
v 23.5 -1.7 0.1
v 23.6 -1.7 0.1
v 23.4 -1.7 -0.1
v 23.5 -1.7 -0.1
v 23.4 -1.7 -0.7
v 23.5 -1.7 -0.7
v 23.5 -1.7 -0.9
v 23.6 -1.7 -0.9
v 23.6 -1.7 -1
v 23.8 -1.7 -1
v 23.8 -1.7 -1.1
v 26.1 -1.7 -1.1

# faces
f 3/8/1 2/8/1 1/8/1
f 4/8/1 2/8/1 3/8/1
f 9/8/1 6/8/1 5/8/1
f 10/8/1 6/8/1 9/8/1
f 11/8/1 8/8/1 7/8/1
f 12/8/1 8/8/1 11/8/1
f 17/8/1 14/8/1 13/8/1
f 18/8/1 14/8/1 17/8/1
f 19/8/1 16/8/1 15/8/1
f 20/8/1 16/8/1 19/8/1
f 25/8/1 22/8/1 21/8/1
f 26/8/1 22/8/1 25/8/1
f 27/8/1 24/8/1 23/8/1
f 28/8/1 24/8/1 27/8/1
f 33/8/1 30/8/1 29/8/1
f 34/8/1 30/8/1 33/8/1
f 35/8/1 32/8/1 31/8/1
f 36/8/1 32/8/1 35/8/1
f 37/4/1 34/4/1 33/4/1
f 38/4/1 36/4/1 35/4/1
f 39/4/1 37/4/1 33/4/1
f 40/4/1 37/4/1 39/4/1
f 41/4/1 36/4/1 38/4/1
f 42/4/1 36/4/1 41/4/1
f 43/8/1 40/8/1 39/8/1
f 44/8/1 40/8/1 43/8/1
f 45/8/1 42/8/1 41/8/1
f 46/8/1 42/8/1 45/8/1
f 47/8/2 48/8/2 51/8/2
f 51/8/2 48/8/2 52/8/2
f 49/8/2 50/8/2 53/8/2
f 53/8/2 50/8/2 54/8/2
f 55/8/2 56/8/2 57/8/2
f 57/8/2 56/8/2 58/8/2
f 59/8/2 60/8/2 63/8/2
f 63/8/2 60/8/2 64/8/2
f 61/8/2 62/8/2 65/8/2
f 65/8/2 62/8/2 66/8/2
f 67/8/2 68/8/2 69/8/2
f 69/8/2 68/8/2 70/8/2
f 71/8/2 72/8/2 75/8/2
f 75/8/2 72/8/2 76/8/2
f 73/8/2 74/8/2 77/8/2
f 77/8/2 74/8/2 78/8/2
f 79/8/2 80/8/2 81/8/2
f 81/8/2 80/8/2 82/8/2
f 83/8/2 84/8/2 87/8/2
f 87/8/2 84/8/2 88/8/2
f 85/8/2 86/8/2 89/8/2
f 89/8/2 86/8/2 90/8/2
f 91/8/2 92/8/2 95/8/2
f 95/8/2 92/8/2 96/8/2
f 93/8/2 94/8/2 97/8/2
f 97/8/2 94/8/2 98/8/2
f 99/8/2 100/8/2 101/8/2
f 101/8/2 100/8/2 102/8/2
f 103/8/2 104/8/2 107/8/2
f 107/8/2 104/8/2 108/8/2
f 105/8/2 106/8/2 109/8/2
f 109/8/2 106/8/2 110/8/2
f 111/8/2 112/8/2 113/8/2
f 113/8/2 112/8/2 114/8/2
f 115/8/2 116/8/2 117/8/2
f 117/8/2 116/8/2 118/8/2
f 119/8/2 120/8/2 121/8/2
f 121/8/2 120/8/2 122/8/2
f 123/8/2 124/8/2 125/8/2
f 125/8/2 124/8/2 126/8/2
f 131/8/3 128/8/3 127/8/3
f 131/4/3 129/4/3 128/4/3
f 132/4/3 129/4/3 131/4/3
f 133/8/3 131/8/3 127/8/3
f 133/8/3 132/8/3 131/8/3
f 134/4/3 129/4/3 132/4/3
f 134/8/3 132/8/3 133/8/3
f 135/4/3 134/4/3 133/4/3
f 135/4/3 129/4/3 134/4/3
f 136/8/3 130/8/3 129/8/3
f 136/4/3 129/4/3 135/4/3
f 137/8/3 130/8/3 136/8/3
f 138/8/3 130/8/3 137/8/3
f 139/4/3 135/4/3 133/4/3
f 139/8/3 133/8/3 127/8/3
f 140/4/3 135/4/3 139/4/3
f 141/8/3 140/8/3 139/8/3
f 141/4/3 135/4/3 140/4/3
f 142/8/3 137/8/3 136/8/3
f 142/4/3 135/4/3 141/4/3
f 142/8/3 136/8/3 135/8/3
f 143/8/3 137/8/3 142/8/3
f 144/8/3 137/8/3 143/8/3
f 145/8/3 142/8/3 141/8/3
f 145/8/3 143/8/3 142/8/3
f 146/8/3 143/8/3 145/8/3
f 147/8/3 141/8/3 139/8/3
f 147/8/3 145/8/3 141/8/3
f 148/8/3 145/8/3 147/8/3
f 149/8/3 139/8/3 127/8/3
f 149/8/3 147/8/3 139/8/3
f 150/8/3 147/8/3 149/8/3
f 151/8/3 149/8/3 127/8/3
f 152/8/3 149/8/3 151/8/3
f 155/8/3 154/8/3 153/8/3
f 156/8/3 154/8/3 155/8/3
f 157/8/3 155/8/3 153/8/3
f 158/4/3 156/4/3 155/4/3
f 158/8/3 155/8/3 157/8/3
f 159/8/3 154/8/3 156/8/3
f 159/4/3 156/4/3 158/4/3
f 160/8/3 154/8/3 159/8/3
f 161/8/3 154/8/3 160/8/3
f 163/8/3 154/8/3 161/8/3
f 164/8/3 163/8/3 162/8/3
f 165/8/3 154/8/3 163/8/3
f 165/8/3 163/8/3 164/8/3
f 168/8/3 167/8/3 166/8/3
f 169/8/3 167/8/3 168/8/3
f 172/8/3 171/8/3 170/8/3
f 173/8/3 171/8/3 172/8/3
f 177/8/3 175/8/3 174/8/3
f 178/8/3 175/8/3 177/8/3
f 178/8/3 177/8/3 176/8/3
f 179/8/3 175/8/3 178/8/3
f 180/8/3 157/8/3 153/8/3
f 181/8/3 178/8/3 176/8/3
f 182/8/3 178/8/3 181/8/3
f 182/8/3 181/8/3 180/8/3
f 183/8/3 178/8/3 182/8/3
f 184/8/3 180/8/3 153/8/3
f 184/8/3 182/8/3 180/8/3
f 185/8/3 182/8/3 184/8/3
f 186/8/3 182/8/3 185/8/3
f 187/8/3 182/8/3 186/8/3
f 188/8/3 186/8/3 185/8/3
f 189/8/3 186/8/3 188/8/3
f 192/8/3 191/8/3 190/8/3
f 193/8/3 191/8/3 192/8/3
f 196/8/3 195/8/3 194/8/3
f 197/8/3 195/8/3 196/8/3
f 200/8/3 199/8/3 198/8/3
f 201/8/3 199/8/3 200/8/3
f 202/8/4 203/8/4 204/8/4
f 204/8/4 203/8/4 205/8/4
f 206/8/4 207/8/4 208/8/4
f 208/8/4 207/8/4 209/8/4
f 210/8/4 211/8/4 212/8/4
f 212/8/4 211/8/4 213/8/4
f 214/8/4 215/8/4 216/8/4
f 216/8/4 215/8/4 217/8/4
f 214/8/4 216/8/4 218/8/4
f 216/4/4 217/4/4 219/4/4
f 218/8/4 216/8/4 219/8/4
f 217/8/4 215/8/4 220/8/4
f 219/4/4 217/4/4 220/4/4
f 220/8/4 215/8/4 221/8/4
f 221/8/4 215/8/4 222/8/4
f 222/8/4 215/8/4 224/8/4
f 223/8/4 224/8/4 225/8/4
f 224/8/4 215/8/4 226/8/4
f 225/8/4 224/8/4 226/8/4
f 227/8/4 228/8/4 229/8/4
f 229/8/4 228/8/4 230/8/4
f 231/8/4 232/8/4 233/8/4
f 233/8/4 232/8/4 234/8/4
f 235/8/4 236/8/4 238/8/4
f 238/8/4 236/8/4 239/8/4
f 237/8/4 238/8/4 239/8/4
f 239/8/4 236/8/4 240/8/4
f 214/8/4 218/8/4 241/8/4
f 237/8/4 239/8/4 242/8/4
f 242/8/4 239/8/4 243/8/4
f 241/8/4 242/8/4 243/8/4
f 243/8/4 239/8/4 244/8/4
f 214/8/4 241/8/4 245/8/4
f 241/8/4 243/8/4 245/8/4
f 245/8/4 243/8/4 246/8/4
f 246/8/4 243/8/4 247/8/4
f 247/8/4 243/8/4 248/8/4
f 246/8/4 247/8/4 249/8/4
f 249/8/4 247/8/4 250/8/4
f 251/8/4 252/8/4 255/8/4
f 252/4/4 253/4/4 255/4/4
f 255/4/4 253/4/4 256/4/4
f 251/8/4 255/8/4 257/8/4
f 255/8/4 256/8/4 257/8/4
f 256/4/4 253/4/4 258/4/4
f 257/8/4 256/8/4 258/8/4
f 257/4/4 258/4/4 259/4/4
f 258/4/4 253/4/4 259/4/4
f 253/8/4 254/8/4 260/8/4
f 259/4/4 253/4/4 260/4/4
f 260/8/4 254/8/4 261/8/4
f 261/8/4 254/8/4 262/8/4
f 257/4/4 259/4/4 263/4/4
f 251/8/4 257/8/4 263/8/4
f 263/4/4 259/4/4 264/4/4
f 263/8/4 264/8/4 265/8/4
f 264/4/4 259/4/4 265/4/4
f 260/8/4 261/8/4 266/8/4
f 265/4/4 259/4/4 266/4/4
f 259/8/4 260/8/4 266/8/4
f 266/8/4 261/8/4 267/8/4
f 267/8/4 261/8/4 268/8/4
f 265/8/4 266/8/4 269/8/4
f 266/8/4 267/8/4 269/8/4
f 269/8/4 267/8/4 270/8/4
f 263/8/4 265/8/4 271/8/4
f 265/8/4 269/8/4 271/8/4
f 271/8/4 269/8/4 272/8/4
f 251/8/4 263/8/4 273/8/4
f 263/8/4 271/8/4 273/8/4
f 273/8/4 271/8/4 274/8/4
f 251/8/4 273/8/4 275/8/4
f 275/8/4 273/8/4 276/8/4
f 280/8/5 278/8/5 277/8/5
f 282/8/5 280/8/5 279/8/5
f 284/8/5 282/8/5 281/8/5
f 285/8/5 284/8/5 283/8/5
f 286/8/5 282/8/5 284/8/5
f 286/8/5 284/8/5 285/8/5
f 287/8/5 282/8/5 286/8/5
f 288/8/5 280/8/5 282/8/5
f 288/8/5 282/8/5 287/8/5
f 289/8/5 280/8/5 288/8/5
f 290/8/5 278/8/5 280/8/5
f 290/8/5 280/8/5 289/8/5
f 291/8/5 278/8/5 290/8/5
f 292/8/5 278/8/5 291/8/5
f 295/8/5 294/8/5 293/8/5
f 296/8/5 294/8/5 295/8/5
f 301/8/5 298/8/5 297/8/5
f 302/8/5 298/8/5 301/8/5
f 303/8/5 300/8/5 299/8/5
f 304/8/5 300/8/5 303/8/5
f 305/8/6 306/8/6 307/8/6
f 307/8/6 306/8/6 308/8/6
f 309/8/6 310/8/6 313/8/6
f 313/8/6 310/8/6 314/8/6
f 311/8/6 312/8/6 315/8/6
f 315/8/6 312/8/6 316/8/6
f 317/8/6 318/8/6 319/8/6
f 319/8/6 318/8/6 320/8/6
f 321/8/6 322/8/6 323/8/6
f 323/8/6 322/8/6 324/8/6
f 325/8/6 326/8/6 329/8/6
f 329/8/6 326/8/6 330/8/6
f 327/8/6 328/8/6 331/8/6
f 331/8/6 328/8/6 332/8/6
f 333/8/6 334/8/6 335/8/6
f 335/8/6 334/8/6 336/8/6
f 336/8/6 334/8/6 337/8/6
f 337/8/6 338/8/6 340/8/6
f 336/8/6 337/8/6 340/8/6
f 340/8/6 338/8/6 341/8/6
f 341/8/6 338/8/6 342/8/6
f 339/8/6 340/8/6 343/8/6
f 340/8/6 341/8/6 343/8/6
f 343/8/6 341/8/6 344/8/6
f 345/8/6 346/8/6 347/8/6
f 347/8/6 346/8/6 348/8/6
f 348/8/6 346/8/6 349/8/6
f 349/8/6 350/8/6 352/8/6
f 348/8/6 349/8/6 352/8/6
f 352/8/6 350/8/6 353/8/6
f 353/8/6 350/8/6 354/8/6
f 351/8/6 352/8/6 355/8/6
f 352/8/6 353/8/6 355/8/6
f 355/8/6 353/8/6 356/8/6
f 357/8/6 358/8/6 359/8/6
f 359/8/6 358/8/6 360/8/6
f 360/8/6 358/8/6 361/8/6
f 361/8/6 362/8/6 364/8/6
f 360/8/6 361/8/6 364/8/6
f 364/8/6 362/8/6 365/8/6
f 365/8/6 362/8/6 366/8/6
f 363/8/6 364/8/6 367/8/6
f 364/8/6 365/8/6 367/8/6
f 367/8/6 365/8/6 368/8/6
f 369/8/6 370/8/6 371/8/6
f 371/8/6 370/8/6 372/8/6
f 373/8/6 374/8/6 375/8/6
f 375/8/6 374/8/6 376/8/6
f 377/8/6 378/8/6 380/8/6
f 379/8/6 380/8/6 382/8/6
f 381/8/6 382/8/6 384/8/6
f 383/8/6 384/8/6 385/8/6
f 384/8/6 382/8/6 386/8/6
f 385/8/6 384/8/6 386/8/6
f 386/8/6 382/8/6 387/8/6
f 382/8/6 380/8/6 388/8/6
f 387/8/6 382/8/6 388/8/6
f 388/8/6 380/8/6 389/8/6
f 380/8/6 378/8/6 390/8/6
f 389/8/6 380/8/6 390/8/6
f 390/8/6 378/8/6 391/8/6
f 391/8/6 378/8/6 392/8/6
