# MagicaVoxel @ Ephtracy

# group
o 

# material
mtllib RL.mtl
usemtl palette

# normals
vn -1 0 0
vn 1 0 0
vn 0 0 1
vn 0 0 -1
vn 0 -1 0
vn 0 1 0

# texcoords
vt 0.0605469 0.5
vt 0.123047 0.5
vt 0.154297 0.5
vt 0.306641 0.5
vt 0.349609 0.5
vt 0.361328 0.5

# verts
v 0 6.3 0
v 0 6.3 -12.6
v 0 6.6 -5.5
v 0 6.6 -7
v 0 6.7 0
v 0 6.7 -5.5
v 0 6.7 -7
v 0 6.7 -12.6
v 12.6 6.3 0
v 12.6 6.3 -12.6
v 12.6 6.6 -5.5
v 12.6 6.6 -7
v 12.6 6.7 0
v 12.6 6.7 -5.5
v 12.6 6.7 -7
v 12.6 6.7 -12.6
v 0 6.3 0
v 0 6.7 0
v 12.6 6.3 0
v 12.6 6.7 0
v 0 6.3 -12.6
v 0 6.7 -12.6
v 12.6 6.3 -12.6
v 12.6 6.7 -12.6
v 0 6.3 0
v 12.6 6.3 0
v 0 6.3 -12.6
v 12.6 6.3 -12.6
v 0 6.7 0
v 12.6 6.7 0
v 7.7 6.7 -0.2
v 9 6.7 -0.2
v 0.7 6.7 -0.5
v 2.6 6.7 -0.5
v 3.7 6.7 -0.5
v 5.3 6.7 -0.5
v 9.5 6.7 -0.8
v 11.7 6.7 -0.8
v 6.3 6.7 -1.2
v 7.1 6.7 -1.2
v 3.7 6.7 -1.3
v 5.3 6.7 -1.3
v 7.7 6.7 -1.5
v 9 6.7 -1.5
v 9.5 6.7 -1.6
v 11.7 6.7 -1.6
v 3.4 6.7 -1.9
v 5.3 6.7 -1.9
v 7.5 6.7 -2
v 11.4 6.7 -2
v 11.7 6.7 -2.2
v 12.3 6.7 -2.2
v 0.7 6.7 -2.3
v 2.6 6.7 -2.3
v 7.5 6.7 -2.8
v 11.4 6.7 -2.8
v 3.4 6.7 -2.9
v 5.3 6.7 -2.9
v 6.3 6.7 -2.9
v 7.1 6.7 -2.9
v 7.5 6.7 -3.3
v 7.9 6.7 -3.3
v 0.7 6.7 -3.5
v 3 6.7 -3.5
v 4.3 6.7 -3.6
v 5.7 6.7 -3.6
v 8.1 6.7 -3.6
v 11.4 6.7 -3.6
v 8.1 6.7 -4.4
v 11.4 6.7 -4.4
v 4.3 6.7 -4.6
v 5.7 6.7 -4.6
v 11.7 6.7 -4.6
v 12.3 6.7 -4.6
v 7.5 6.7 -4.8
v 7.9 6.7 -4.8
v 8.5 6.7 -4.8
v 11.6 6.7 -4.8
v 0.7 6.7 -4.9
v 3 6.7 -4.9
v 8.5 6.7 -5.1
v 11.6 6.7 -5.1
v 0 6.7 -5.5
v 12.6 6.7 -5.5
v 0.5 6.7 -5.6
v 1 6.7 -5.6
v 1.8 6.7 -5.6
v 2.1 6.7 -5.6
v 9.5 6.7 -5.6
v 9.8 6.7 -5.6
v 10.4 6.7 -5.6
v 10.7 6.7 -5.6
v 11.9 6.7 -5.6
v 12.1 6.7 -5.6
v 3.6 6.7 -5.7
v 4.1 6.7 -5.7
v 7.1 6.7 -5.7
v 7.6 6.7 -5.7
v 1.8 6.7 -5.8
v 2.1 6.7 -5.8
v 4.9 6.7 -5.8
v 5.5 6.7 -5.8
v 6.3 6.7 -5.8
v 6.7 6.7 -5.8
v 8.6 6.7 -5.8
v 9.1 6.7 -5.8
v 0.5 6.7 -5.9
v 1 6.7 -5.9
v 2.7 6.7 -5.9
v 3.3 6.7 -5.9
v 3.6 6.7 -5.9
v 4.1 6.7 -5.9
v 7.1 6.7 -5.9
v 7.6 6.7 -5.9
v 10.4 6.7 -5.9
v 10.7 6.7 -5.9
v 11.1 6.7 -5.9
v 11.4 6.7 -5.9
v 4.1 6.7 -6
v 4.5 6.7 -6
v 9.5 6.7 -6
v 9.8 6.7 -6
v 10 6.7 -6
v 10.4 6.7 -6
v 11.9 6.7 -6
v 12.1 6.7 -6
v 1.6 6.7 -6.1
v 2.2 6.7 -6.1
v 0.2 6.7 -6.2
v 0.5 6.7 -6.2
v 2.7 6.7 -6.2
v 3.3 6.7 -6.2
v 4.9 6.7 -6.2
v 5.5 6.7 -6.2
v 6.3 6.7 -6.2
v 6.7 6.7 -6.2
v 7.8 6.7 -6.2
v 8.2 6.7 -6.2
v 0.7 6.7 -6.3
v 1 6.7 -6.3
v 8.6 6.7 -6.3
v 9.1 6.7 -6.3
v 11.1 6.7 -6.3
v 11.4 6.7 -6.3
v 11.7 6.7 -6.3
v 12 6.7 -6.3
v 4.1 6.7 -6.4
v 4.5 6.7 -6.4
v 10 6.7 -6.4
v 10.4 6.7 -6.4
v 5.4 6.7 -6.5
v 5.7 6.7 -6.5
v 8.9 6.7 -6.5
v 9.6 6.7 -6.5
v 12.2 6.7 -6.5
v 12.4 6.7 -6.5
v 0.2 6.7 -6.6
v 0.5 6.7 -6.6
v 1.6 6.7 -6.6
v 2.2 6.7 -6.6
v 3 6.7 -6.6
v 4 6.7 -6.6
v 10.8 6.7 -6.6
v 11.3 6.7 -6.6
v 11.7 6.7 -6.6
v 12 6.7 -6.6
v 6.3 6.7 -6.7
v 6.7 6.7 -6.7
v 7.8 6.7 -6.7
v 8.2 6.7 -6.7
v 12.2 6.7 -6.7
v 12.4 6.7 -6.7
v 0.7 6.7 -6.8
v 1 6.7 -6.8
v 3 6.7 -6.8
v 4 6.7 -6.8
v 5.4 6.7 -6.8
v 5.7 6.7 -6.8
v 8.9 6.7 -6.8
v 9.6 6.7 -6.8
v 10.8 6.7 -6.9
v 11.3 6.7 -6.9
v 0 6.7 -7
v 6.3 6.7 -7
v 6.7 6.7 -7
v 12.6 6.7 -7
v 8.1 6.7 -7.4
v 10.9 6.7 -7.4
v 1.8 6.7 -7.6
v 3.1 6.7 -7.6
v 11.2 6.7 -7.6
v 12.3 6.7 -7.6
v 3.8 6.7 -7.7
v 4.9 6.7 -7.7
v 8.1 6.7 -7.7
v 10.9 6.7 -7.7
v 0.3 6.7 -7.8
v 1.2 6.7 -7.8
v 5.6 6.7 -8
v 6.3 6.7 -8
v 7.7 6.7 -8
v 8.9 6.7 -8
v 9.6 6.7 -8
v 10.8 6.7 -8
v 6.9 6.7 -8.2
v 7.1 6.7 -8.2
v 1.8 6.7 -8.3
v 3.1 6.7 -8.3
v 11.2 6.7 -8.4
v 12.3 6.7 -8.4
v 1.6 6.7 -8.8
v 2.9 6.7 -8.8
v 11.3 6.7 -8.8
v 12.3 6.7 -8.8
v 0.3 6.7 -9.1
v 1.2 6.7 -9.1
v 3.8 6.7 -9.2
v 4.9 6.7 -9.2
v 7.7 6.7 -9.6
v 8.9 6.7 -9.6
v 9.6 6.7 -9.7
v 10.8 6.7 -9.7
v 5.6 6.7 -9.8
v 6.3 6.7 -9.8
v 7.7 6.7 -9.9
v 9.1 6.7 -9.9
v 3.6 6.7 -10
v 4.5 6.7 -10
v 7.7 6.7 -10
v 9.1 6.7 -10
v 9.2 6.7 -10.2
v 10 6.7 -10.2
v 5.2 6.7 -10.4
v 5.7 6.7 -10.4
v 6.9 6.7 -10.4
v 7.1 6.7 -10.4
v 9.2 6.7 -10.4
v 10 6.7 -10.4
v 1.6 6.7 -10.6
v 2.9 6.7 -10.6
v 3.6 6.7 -10.7
v 4.5 6.7 -10.7
v 5.2 6.7 -10.8
v 5.7 6.7 -10.8
v 8.1 6.7 -10.8
v 10.5 6.7 -10.8
v 0.6 6.7 -11
v 1.8 6.7 -11
v 5.7 6.7 -11.2
v 7.2 6.7 -11.2
v 2.2 6.7 -11.3
v 3.5 6.7 -11.3
v 4 6.7 -11.6
v 4.8 6.7 -11.6
v 5.7 6.7 -11.8
v 7.2 6.7 -11.8
v 2.2 6.7 -12
v 3.5 6.7 -12
v 8.1 6.7 -12.1
v 10.5 6.7 -12.1
v 11.3 6.7 -12.1
v 12.3 6.7 -12.1
v 0.6 6.7 -12.2
v 1.8 6.7 -12.2
v 4 6.7 -12.3
v 4.8 6.7 -12.3
v 0 6.7 -12.6
v 12.6 6.7 -12.6

# faces
f 3/2/1 2/2/1 1/2/1
f 4/2/1 2/2/1 3/2/1
f 5/2/1 3/2/1 1/2/1
f 6/6/1 4/6/1 3/6/1
f 6/2/1 3/2/1 5/2/1
f 7/2/1 2/2/1 4/2/1
f 7/6/1 4/6/1 6/6/1
f 8/2/1 2/2/1 7/2/1
f 9/2/2 10/2/2 11/2/2
f 11/2/2 10/2/2 12/2/2
f 9/2/2 11/2/2 13/2/2
f 11/6/2 12/6/2 14/6/2
f 13/2/2 11/2/2 14/2/2
f 12/2/2 10/2/2 15/2/2
f 14/6/2 12/6/2 15/6/2
f 15/2/2 10/2/2 16/2/2
f 19/2/3 18/2/3 17/2/3
f 20/2/3 18/2/3 19/2/3
f 21/2/4 22/2/4 23/2/4
f 23/2/4 22/2/4 24/2/4
f 27/2/5 26/2/5 25/2/5
f 28/2/5 26/2/5 27/2/5
f 29/2/6 30/2/6 31/2/6
f 31/2/6 30/2/6 32/2/6
f 29/2/6 31/2/6 33/2/6
f 33/2/6 31/2/6 34/2/6
f 34/2/6 31/2/6 35/2/6
f 35/2/6 31/2/6 36/2/6
f 32/2/6 30/2/6 37/2/6
f 37/2/6 30/2/6 38/2/6
f 36/2/6 31/2/6 39/2/6
f 39/2/6 31/2/6 40/2/6
f 34/2/6 35/2/6 41/2/6
f 35/3/6 36/3/6 41/3/6
f 36/2/6 39/2/6 42/2/6
f 41/3/6 36/3/6 42/3/6
f 31/3/6 32/3/6 43/3/6
f 40/2/6 31/2/6 43/2/6
f 32/2/6 37/2/6 44/2/6
f 43/3/6 32/3/6 44/3/6
f 37/3/6 38/3/6 45/3/6
f 44/2/6 37/2/6 45/2/6
f 43/2/6 44/2/6 45/2/6
f 38/2/6 30/2/6 46/2/6
f 45/3/6 38/3/6 46/3/6
f 41/2/6 42/2/6 47/2/6
f 34/2/6 41/2/6 47/2/6
f 42/2/6 39/2/6 48/2/6
f 47/2/6 42/2/6 48/2/6
f 43/2/6 45/2/6 49/2/6
f 40/2/6 43/2/6 49/2/6
f 45/2/6 46/2/6 49/2/6
f 49/2/6 46/2/6 50/2/6
f 46/2/6 30/2/6 51/2/6
f 50/2/6 46/2/6 51/2/6
f 51/2/6 30/2/6 52/2/6
f 29/2/6 33/2/6 53/2/6
f 33/3/6 34/3/6 53/3/6
f 34/2/6 47/2/6 54/2/6
f 53/3/6 34/3/6 54/3/6
f 49/3/6 50/3/6 55/3/6
f 40/2/6 49/2/6 55/2/6
f 50/2/6 51/2/6 56/2/6
f 55/3/6 50/3/6 56/3/6
f 54/2/6 47/2/6 57/2/6
f 47/3/6 48/3/6 57/3/6
f 53/2/6 54/2/6 57/2/6
f 48/2/6 39/2/6 58/2/6
f 57/3/6 48/3/6 58/3/6
f 39/3/6 40/3/6 59/3/6
f 58/2/6 39/2/6 59/2/6
f 55/2/6 56/2/6 60/2/6
f 59/3/6 40/3/6 60/3/6
f 40/2/6 55/2/6 60/2/6
f 57/2/6 58/2/6 61/2/6
f 60/2/6 56/2/6 61/2/6
f 59/2/6 60/2/6 61/2/6
f 58/2/6 59/2/6 61/2/6
f 61/2/6 56/2/6 62/2/6
f 53/2/6 57/2/6 63/2/6
f 29/2/6 53/2/6 63/2/6
f 57/2/6 61/2/6 63/2/6
f 63/2/6 61/2/6 64/2/6
f 64/2/6 61/2/6 65/2/6
f 65/2/6 61/2/6 66/2/6
f 62/2/6 56/2/6 67/2/6
f 56/2/6 51/2/6 68/2/6
f 67/2/6 56/2/6 68/2/6
f 62/2/6 67/2/6 69/2/6
f 67/3/6 68/3/6 69/3/6
f 68/2/6 51/2/6 70/2/6
f 69/3/6 68/3/6 70/3/6
f 64/2/6 65/2/6 71/2/6
f 65/3/6 66/3/6 71/3/6
f 66/2/6 61/2/6 72/2/6
f 71/3/6 66/3/6 72/3/6
f 51/3/6 52/3/6 73/3/6
f 70/2/6 51/2/6 73/2/6
f 69/2/6 70/2/6 73/2/6
f 52/2/6 30/2/6 74/2/6
f 73/3/6 52/3/6 74/3/6
f 61/3/6 62/3/6 75/3/6
f 72/2/6 61/2/6 75/2/6
f 71/2/6 72/2/6 75/2/6
f 69/2/6 73/2/6 76/2/6
f 75/3/6 62/3/6 76/3/6
f 73/2/6 74/2/6 76/2/6
f 62/2/6 69/2/6 76/2/6
f 76/2/6 74/2/6 77/2/6
f 77/2/6 74/2/6 78/2/6
f 63/3/6 64/3/6 79/3/6
f 29/2/6 63/2/6 79/2/6
f 64/2/6 71/2/6 80/2/6
f 79/3/6 64/3/6 80/3/6
f 71/2/6 75/2/6 80/2/6
f 76/2/6 77/2/6 80/2/6
f 75/2/6 76/2/6 80/2/6
f 77/3/6 78/3/6 81/3/6
f 80/2/6 77/2/6 81/2/6
f 79/2/6 80/2/6 81/2/6
f 78/2/6 74/2/6 82/2/6
f 81/3/6 78/3/6 82/3/6
f 29/2/6 79/2/6 83/2/6
f 79/2/6 81/2/6 83/2/6
f 81/2/6 82/2/6 83/2/6
f 82/2/6 74/2/6 84/2/6
f 83/2/6 82/2/6 84/2/6
f 74/2/6 30/2/6 84/2/6
f 83/6/6 84/6/6 85/6/6
f 85/6/6 84/6/6 86/6/6
f 86/6/6 84/6/6 87/6/6
f 87/6/6 84/6/6 88/6/6
f 88/6/6 84/6/6 89/6/6
f 89/6/6 84/6/6 90/6/6
f 90/6/6 84/6/6 91/6/6
f 91/6/6 84/6/6 92/6/6
f 92/6/6 84/6/6 93/6/6
f 93/6/6 84/6/6 94/6/6
f 88/6/6 89/6/6 95/6/6
f 95/6/6 89/6/6 96/6/6
f 96/6/6 89/6/6 97/6/6
f 97/6/6 89/6/6 98/6/6
f 86/6/6 87/6/6 99/6/6
f 87/5/6 88/5/6 99/5/6
f 88/6/6 95/6/6 100/6/6
f 99/5/6 88/5/6 100/5/6
f 96/6/6 97/6/6 101/6/6
f 101/6/6 97/6/6 102/6/6
f 102/6/6 97/6/6 103/6/6
f 103/6/6 97/6/6 104/6/6
f 98/6/6 89/6/6 105/6/6
f 105/6/6 89/6/6 106/6/6
f 83/6/6 85/6/6 107/6/6
f 85/5/6 86/5/6 107/5/6
f 86/6/6 99/6/6 108/6/6
f 107/5/6 86/5/6 108/5/6
f 99/6/6 100/6/6 108/6/6
f 100/6/6 95/6/6 109/6/6
f 108/6/6 100/6/6 109/6/6
f 109/6/6 95/6/6 110/6/6
f 95/5/6 96/5/6 111/5/6
f 110/6/6 95/6/6 111/6/6
f 96/6/6 101/6/6 112/6/6
f 111/5/6 96/5/6 112/5/6
f 104/6/6 97/6/6 113/6/6
f 97/5/6 98/5/6 113/5/6
f 98/6/6 105/6/6 114/6/6
f 113/5/6 98/5/6 114/5/6
f 90/6/6 91/6/6 115/6/6
f 91/5/6 92/5/6 115/5/6
f 92/6/6 93/6/6 116/6/6
f 115/5/6 92/5/6 116/5/6
f 116/6/6 93/6/6 117/6/6
f 117/6/6 93/6/6 118/6/6
f 112/6/6 101/6/6 119/6/6
f 111/6/6 112/6/6 119/6/6
f 110/6/6 111/6/6 119/6/6
f 119/6/6 101/6/6 120/6/6
f 106/6/6 89/6/6 121/6/6
f 89/5/6 90/5/6 121/5/6
f 90/6/6 115/6/6 122/6/6
f 121/5/6 90/5/6 122/5/6
f 116/6/6 117/6/6 122/6/6
f 115/6/6 116/6/6 122/6/6
f 122/6/6 117/6/6 123/6/6
f 123/6/6 117/6/6 124/6/6
f 118/6/6 93/6/6 125/6/6
f 93/5/6 94/5/6 125/5/6
f 94/6/6 84/6/6 126/6/6
f 125/5/6 94/5/6 126/5/6
f 107/6/6 108/6/6 127/6/6
f 108/6/6 109/6/6 127/6/6
f 127/6/6 109/6/6 128/6/6
f 83/6/6 107/6/6 129/6/6
f 107/6/6 127/6/6 129/6/6
f 129/6/6 127/6/6 130/6/6
f 128/6/6 109/6/6 131/6/6
f 109/5/6 110/5/6 131/5/6
f 110/6/6 119/6/6 132/6/6
f 131/5/6 110/5/6 132/5/6
f 120/6/6 101/6/6 133/6/6
f 101/5/6 102/5/6 133/5/6
f 102/6/6 103/6/6 134/6/6
f 133/5/6 102/5/6 134/5/6
f 103/5/6 104/5/6 135/5/6
f 134/6/6 103/6/6 135/6/6
f 113/6/6 114/6/6 136/6/6
f 135/5/6 104/5/6 136/5/6
f 104/6/6 113/6/6 136/6/6
f 114/6/6 105/6/6 137/6/6
f 136/6/6 114/6/6 137/6/6
f 137/6/6 105/6/6 138/6/6
f 130/6/6 127/6/6 139/6/6
f 139/6/6 127/6/6 140/6/6
f 105/5/6 106/5/6 141/5/6
f 138/6/6 105/6/6 141/6/6
f 106/6/6 121/6/6 142/6/6
f 141/5/6 106/5/6 142/5/6
f 121/6/6 122/6/6 142/6/6
f 122/6/6 123/6/6 142/6/6
f 124/6/6 117/6/6 143/6/6
f 117/5/6 118/5/6 143/5/6
f 118/6/6 125/6/6 144/6/6
f 143/5/6 118/5/6 144/5/6
f 125/6/6 126/6/6 144/6/6
f 144/6/6 126/6/6 145/6/6
f 145/6/6 126/6/6 146/6/6
f 132/6/6 119/6/6 147/6/6
f 119/5/6 120/5/6 147/5/6
f 131/6/6 132/6/6 147/6/6
f 135/6/6 136/6/6 148/6/6
f 147/5/6 120/5/6 148/5/6
f 134/6/6 135/6/6 148/6/6
f 120/6/6 133/6/6 148/6/6
f 133/6/6 134/6/6 148/6/6
f 136/6/6 137/6/6 148/6/6
f 142/6/6 123/6/6 149/6/6
f 141/6/6 142/6/6 149/6/6
f 123/5/6 124/5/6 149/5/6
f 124/6/6 143/6/6 150/6/6
f 149/5/6 124/5/6 150/5/6
f 143/6/6 144/6/6 150/6/6
f 144/6/6 145/6/6 150/6/6
f 148/6/6 137/6/6 151/6/6
f 147/6/6 148/6/6 151/6/6
f 151/6/6 137/6/6 152/6/6
f 149/6/6 150/6/6 153/6/6
f 141/6/6 149/6/6 153/6/6
f 153/6/6 150/6/6 154/6/6
f 146/6/6 126/6/6 155/6/6
f 126/6/6 84/6/6 155/6/6
f 155/6/6 84/6/6 156/6/6
f 129/5/6 130/5/6 157/5/6
f 83/6/6 129/6/6 157/6/6
f 130/6/6 139/6/6 158/6/6
f 157/5/6 130/5/6 158/5/6
f 140/6/6 127/6/6 159/6/6
f 127/5/6 128/5/6 159/5/6
f 131/6/6 147/6/6 160/6/6
f 159/5/6 128/5/6 160/5/6
f 128/6/6 131/6/6 160/6/6
f 147/6/6 151/6/6 160/6/6
f 160/6/6 151/6/6 161/6/6
f 161/6/6 151/6/6 162/6/6
f 154/6/6 150/6/6 163/6/6
f 150/6/6 145/6/6 163/6/6
f 163/6/6 145/6/6 164/6/6
f 145/5/6 146/5/6 165/5/6
f 164/6/6 145/6/6 165/6/6
f 146/6/6 155/6/6 166/6/6
f 165/5/6 146/5/6 166/5/6
f 152/6/6 137/6/6 167/6/6
f 167/6/6 137/6/6 168/6/6
f 137/5/6 138/5/6 169/5/6
f 168/6/6 137/6/6 169/6/6
f 138/6/6 141/6/6 170/6/6
f 169/5/6 138/5/6 170/5/6
f 141/6/6 153/6/6 170/6/6
f 166/6/6 155/6/6 171/6/6
f 155/5/6 156/5/6 171/5/6
f 164/6/6 165/6/6 171/6/6
f 165/6/6 166/6/6 171/6/6
f 156/6/6 84/6/6 172/6/6
f 171/5/6 156/5/6 172/5/6
f 158/6/6 139/6/6 173/6/6
f 139/5/6 140/5/6 173/5/6
f 157/6/6 158/6/6 173/6/6
f 140/6/6 159/6/6 174/6/6
f 173/5/6 140/5/6 174/5/6
f 160/6/6 161/6/6 174/6/6
f 159/6/6 160/6/6 174/6/6
f 161/5/6 162/5/6 175/5/6
f 174/6/6 161/6/6 175/6/6
f 162/6/6 151/6/6 176/6/6
f 175/5/6 162/5/6 176/5/6
f 151/5/6 152/5/6 177/5/6
f 176/6/6 151/6/6 177/6/6
f 152/6/6 167/6/6 178/6/6
f 177/5/6 152/5/6 178/5/6
f 170/6/6 153/6/6 179/6/6
f 168/6/6 169/6/6 179/6/6
f 153/5/6 154/5/6 179/5/6
f 169/6/6 170/6/6 179/6/6
f 154/6/6 163/6/6 180/6/6
f 179/5/6 154/5/6 180/5/6
f 163/5/6 164/5/6 181/5/6
f 180/6/6 163/6/6 181/6/6
f 179/6/6 180/6/6 181/6/6
f 171/6/6 172/6/6 182/6/6
f 181/5/6 164/5/6 182/5/6
f 164/6/6 171/6/6 182/6/6
f 174/6/6 175/6/6 183/6/6
f 173/6/6 174/6/6 183/6/6
f 175/6/6 176/6/6 183/6/6
f 176/6/6 177/6/6 183/6/6
f 157/6/6 173/6/6 183/6/6
f 83/6/6 157/6/6 183/6/6
f 177/6/6 178/6/6 183/6/6
f 178/6/6 167/6/6 184/6/6
f 183/6/6 178/6/6 184/6/6
f 167/5/6 168/5/6 184/5/6
f 181/6/6 182/6/6 185/6/6
f 184/5/6 168/5/6 185/5/6
f 179/6/6 181/6/6 185/6/6
f 168/6/6 179/6/6 185/6/6
f 182/6/6 172/6/6 186/6/6
f 185/6/6 182/6/6 186/6/6
f 172/6/6 84/6/6 186/6/6
f 184/2/6 185/2/6 187/2/6
f 183/2/6 184/2/6 187/2/6
f 185/2/6 186/2/6 187/2/6
f 187/2/6 186/2/6 188/2/6
f 183/2/6 187/2/6 189/2/6
f 189/2/6 187/2/6 190/2/6
f 188/2/6 186/2/6 191/2/6
f 191/2/6 186/2/6 192/2/6
f 190/2/6 187/2/6 193/2/6
f 193/2/6 187/2/6 194/2/6
f 187/3/6 188/3/6 195/3/6
f 194/2/6 187/2/6 195/2/6
f 188/2/6 191/2/6 196/2/6
f 195/3/6 188/3/6 196/3/6
f 183/2/6 189/2/6 197/2/6
f 197/2/6 189/2/6 198/2/6
f 194/2/6 195/2/6 199/2/6
f 195/2/6 196/2/6 199/2/6
f 199/2/6 196/2/6 200/2/6
f 200/2/6 196/2/6 201/2/6
f 201/2/6 196/2/6 202/2/6
f 202/2/6 196/2/6 203/2/6
f 203/2/6 196/2/6 204/2/6
f 200/2/6 201/2/6 205/2/6
f 205/2/6 201/2/6 206/2/6
f 189/3/6 190/3/6 207/3/6
f 198/2/6 189/2/6 207/2/6
f 190/2/6 193/2/6 208/2/6
f 207/3/6 190/3/6 208/3/6
f 196/2/6 191/2/6 209/2/6
f 191/3/6 192/3/6 209/3/6
f 204/2/6 196/2/6 209/2/6
f 192/2/6 186/2/6 210/2/6
f 209/3/6 192/3/6 210/3/6
f 207/2/6 208/2/6 211/2/6
f 198/2/6 207/2/6 211/2/6
f 211/2/6 208/2/6 212/2/6
f 209/2/6 210/2/6 213/2/6
f 210/2/6 186/2/6 214/2/6
f 213/2/6 210/2/6 214/2/6
f 197/3/6 198/3/6 215/3/6
f 183/2/6 197/2/6 215/2/6
f 198/2/6 211/2/6 216/2/6
f 215/3/6 198/3/6 216/3/6
f 193/3/6 194/3/6 217/3/6
f 208/2/6 193/2/6 217/2/6
f 212/2/6 208/2/6 217/2/6
f 194/2/6 199/2/6 218/2/6
f 217/3/6 194/3/6 218/3/6
f 206/2/6 201/2/6 219/2/6
f 201/3/6 202/3/6 219/3/6
f 202/2/6 203/2/6 220/2/6
f 219/3/6 202/3/6 220/3/6
f 203/3/6 204/3/6 221/3/6
f 220/2/6 203/2/6 221/2/6
f 219/2/6 220/2/6 221/2/6
f 204/2/6 209/2/6 222/2/6
f 221/3/6 204/3/6 222/3/6
f 209/2/6 213/2/6 222/2/6
f 218/2/6 199/2/6 223/2/6
f 199/3/6 200/3/6 223/3/6
f 217/2/6 218/2/6 223/2/6
f 200/2/6 205/2/6 224/2/6
f 223/3/6 200/3/6 224/3/6
f 219/2/6 221/2/6 225/2/6
f 221/2/6 222/2/6 225/2/6
f 206/2/6 219/2/6 225/2/6
f 225/2/6 222/2/6 226/2/6
f 212/2/6 217/2/6 227/2/6
f 223/2/6 224/2/6 227/2/6
f 217/2/6 223/2/6 227/2/6
f 227/2/6 224/2/6 228/2/6
f 225/3/6 226/3/6 229/3/6
f 206/2/6 225/2/6 229/2/6
f 226/2/6 222/2/6 230/2/6
f 229/3/6 226/3/6 230/3/6
f 229/2/6 230/2/6 231/2/6
f 230/2/6 222/2/6 231/2/6
f 231/2/6 222/2/6 232/2/6
f 228/2/6 224/2/6 233/2/6
f 233/2/6 224/2/6 234/2/6
f 224/2/6 205/2/6 235/2/6
f 234/2/6 224/2/6 235/2/6
f 205/3/6 206/3/6 235/3/6
f 206/2/6 229/2/6 236/2/6
f 235/3/6 206/3/6 236/3/6
f 229/2/6 231/2/6 236/2/6
f 231/3/6 232/3/6 237/3/6
f 236/2/6 231/2/6 237/2/6
f 232/2/6 222/2/6 238/2/6
f 237/3/6 232/3/6 238/3/6
f 216/2/6 211/2/6 239/2/6
f 215/2/6 216/2/6 239/2/6
f 211/3/6 212/3/6 239/3/6
f 212/2/6 227/2/6 240/2/6
f 239/3/6 212/3/6 240/3/6
f 227/3/6 228/3/6 241/3/6
f 240/2/6 227/2/6 241/2/6
f 239/2/6 240/2/6 241/2/6
f 228/2/6 233/2/6 242/2/6
f 241/3/6 228/3/6 242/3/6
f 233/3/6 234/3/6 243/3/6
f 242/2/6 233/2/6 243/2/6
f 241/2/6 242/2/6 243/2/6
f 237/2/6 238/2/6 244/2/6
f 243/3/6 234/3/6 244/3/6
f 235/2/6 236/2/6 244/2/6
f 236/2/6 237/2/6 244/2/6
f 234/2/6 235/2/6 244/2/6
f 244/2/6 238/2/6 245/2/6
f 238/2/6 222/2/6 246/2/6
f 245/2/6 238/2/6 246/2/6
f 215/2/6 239/2/6 247/2/6
f 244/2/6 245/2/6 247/2/6
f 241/2/6 243/2/6 247/2/6
f 243/2/6 244/2/6 247/2/6
f 239/2/6 241/2/6 247/2/6
f 247/2/6 245/2/6 248/2/6
f 248/2/6 245/2/6 249/2/6
f 249/2/6 245/2/6 250/2/6
f 248/2/6 249/2/6 251/2/6
f 251/2/6 249/2/6 252/2/6
f 252/2/6 249/2/6 253/2/6
f 253/2/6 249/2/6 254/2/6
f 249/3/6 250/3/6 255/3/6
f 254/2/6 249/2/6 255/2/6
f 250/2/6 245/2/6 256/2/6
f 255/3/6 250/3/6 256/3/6
f 248/2/6 251/2/6 257/2/6
f 251/3/6 252/3/6 257/3/6
f 252/2/6 253/2/6 258/2/6
f 257/3/6 252/3/6 258/3/6
f 245/3/6 246/3/6 259/3/6
f 256/2/6 245/2/6 259/2/6
f 255/2/6 256/2/6 259/2/6
f 246/2/6 222/2/6 260/2/6
f 259/3/6 246/3/6 260/3/6
f 222/2/6 213/2/6 261/2/6
f 260/2/6 222/2/6 261/2/6
f 213/3/6 214/3/6 261/3/6
f 214/2/6 186/2/6 262/2/6
f 261/3/6 214/3/6 262/3/6
f 215/2/6 247/2/6 263/2/6
f 247/3/6 248/3/6 263/3/6
f 248/2/6 257/2/6 264/2/6
f 263/3/6 248/3/6 264/3/6
f 257/2/6 258/2/6 264/2/6
f 258/2/6 253/2/6 265/2/6
f 264/2/6 258/2/6 265/2/6
f 263/2/6 264/2/6 265/2/6
f 253/3/6 254/3/6 265/3/6
f 255/2/6 259/2/6 266/2/6
f 265/3/6 254/3/6 266/3/6
f 254/2/6 255/2/6 266/2/6
f 261/2/6 262/2/6 266/2/6
f 260/2/6 261/2/6 266/2/6
f 259/2/6 260/2/6 266/2/6
f 263/2/6 265/2/6 267/2/6
f 183/2/6 215/2/6 267/2/6
f 265/2/6 266/2/6 267/2/6
f 215/2/6 263/2/6 267/2/6
f 266/2/6 262/2/6 268/2/6
f 267/2/6 266/2/6 268/2/6
f 262/2/6 186/2/6 268/2/6
