# MagicaVoxel @ Ephtracy

# group
o 

# material
mtllib T.mtl
usemtl palette

# normals
vn -1 0 0
vn 1 0 0
vn 0 0 1
vn 0 0 -1
vn 0 -1 0
vn 0 1 0

# texcoords
vt 0.0605469 0.5
vt 0.123047 0.5
vt 0.154297 0.5
vt 0.306641 0.5
vt 0.349609 0.5
vt 0.361328 0.5

# verts
v 0 6.3 0
v 0 6.3 -12.6
v 0 6.7 0
v 0 6.7 -12.6
v 12.6 6.3 0
v 12.6 6.3 -12.6
v 12.6 6.7 0
v 12.6 6.7 -12.6
v 0 6.3 0
v 0 6.7 0
v 12.6 6.3 0
v 12.6 6.7 0
v 0 6.3 -12.6
v 0 6.7 -12.6
v 5.5 6.6 -12.6
v 5.5 6.7 -12.6
v 7 6.6 -12.6
v 7 6.7 -12.6
v 12.6 6.3 -12.6
v 12.6 6.7 -12.6
v 0 6.3 0
v 12.6 6.3 0
v 0 6.3 -12.6
v 12.6 6.3 -12.6
v 0 6.7 0
v 12.6 6.7 0
v 7.8 6.7 -0.3
v 8.6 6.7 -0.3
v 10.8 6.7 -0.4
v 12 6.7 -0.4
v 0.3 6.7 -0.5
v 1.3 6.7 -0.5
v 2.1 6.7 -0.5
v 4.5 6.7 -0.5
v 5.4 6.7 -0.5
v 6.6 6.7 -0.5
v 9.1 6.7 -0.6
v 10.4 6.7 -0.6
v 7.8 6.7 -1
v 8.6 6.7 -1
v 9.1 6.7 -1.3
v 10.4 6.7 -1.3
v 5.4 6.7 -1.4
v 6.6 6.7 -1.4
v 10.8 6.7 -1.6
v 12 6.7 -1.6
v 2.1 6.7 -1.8
v 4.5 6.7 -1.8
v 6.2 6.7 -1.9
v 7.2 6.7 -1.9
v 8.1 6.7 -1.9
v 9 6.7 -1.9
v 9.7 6.7 -2
v 11 6.7 -2
v 2.6 6.7 -2.1
v 3.4 6.7 -2.1
v 3.5 6.7 -2.1
v 5.8 6.7 -2.1
v 6.2 6.7 -2.2
v 7.2 6.7 -2.2
v 2.6 6.7 -2.4
v 3.4 6.7 -2.4
v 8.1 6.7 -2.6
v 9 6.7 -2.6
v 3.5 6.7 -2.7
v 5.8 6.7 -2.7
v 1.8 6.7 -2.9
v 3 6.7 -2.9
v 5.5 6.7 -2.9
v 6.2 6.7 -2.9
v 3.7 6.7 -3
v 4.9 6.7 -3
v 7.7 6.7 -3.4
v 8.8 6.7 -3.4
v 11.4 6.7 -3.5
v 12.3 6.7 -3.5
v 0.3 6.7 -3.8
v 1.3 6.7 -3.8
v 9.7 6.7 -3.8
v 11 6.7 -3.8
v 0.3 6.7 -4.2
v 1.4 6.7 -4.2
v 5.5 6.7 -4.3
v 6.2 6.7 -4.3
v 9.5 6.7 -4.3
v 10.8 6.7 -4.3
v 1.8 6.7 -4.6
v 3 6.7 -4.6
v 3.7 6.7 -4.6
v 4.9 6.7 -4.6
v 11.4 6.7 -4.8
v 12.3 6.7 -4.8
v 6.1 6.7 -4.9
v 7 6.7 -4.9
v 7.7 6.7 -4.9
v 8.8 6.7 -4.9
v 0.3 6.7 -5
v 1.4 6.7 -5
v 9.5 6.7 -5
v 10.8 6.7 -5
v 4.8 6.7 -5.1
v 5.7 6.7 -5.1
v 7.7 6.7 -5.3
v 8.4 6.7 -5.3
v 0.4 6.7 -5.6
v 0.9 6.7 -5.6
v 2.6 6.7 -5.6
v 4.1 6.7 -5.6
v 8.8 6.7 -5.8
v 11.5 6.7 -5.8
v 4.8 6.7 -5.9
v 5.7 6.7 -5.9
v 7.7 6.7 -6.1
v 8.4 6.7 -6.1
v 8.8 6.7 -6.5
v 11.5 6.7 -6.5
v 2.6 6.7 -6.9
v 4.1 6.7 -6.9
v 6.1 6.7 -6.9
v 7 6.7 -6.9
v 0.4 6.7 -7
v 0.9 6.7 -7
v 7.6 6.7 -7
v 10 6.7 -7
v 6.4 6.7 -7.3
v 6.8 6.7 -7.3
v 7.6 6.7 -7.4
v 10 6.7 -7.4
v 2.4 6.7 -7.7
v 5.8 6.7 -7.7
v 9.6 6.7 -7.7
v 11.9 6.7 -7.7
v 7.4 6.7 -7.9
v 8.9 6.7 -7.9
v 0.3 6.7 -8
v 0.9 6.7 -8
v 6.4 6.7 -8
v 6.8 6.7 -8
v 2.4 6.7 -8.7
v 5.8 6.7 -8.7
v 7.4 6.7 -9
v 8.9 6.7 -9
v 5.7 6.7 -9.1
v 6.5 6.7 -9.1
v 9.6 6.7 -9.1
v 11.9 6.7 -9.1
v 5.7 6.7 -9.6
v 6.5 6.7 -9.6
v 7.3 6.7 -9.7
v 9.2 6.7 -9.7
v 1.2 6.7 -9.8
v 5.1 6.7 -9.8
v 10 6.7 -10.3
v 11.9 6.7 -10.3
v 0.3 6.7 -10.4
v 0.9 6.7 -10.4
v 1.2 6.7 -10.6
v 5.1 6.7 -10.6
v 7.3 6.7 -10.7
v 9.2 6.7 -10.7
v 5.5 6.7 -10.8
v 5.6 6.7 -10.8
v 5.9 6.7 -10.8
v 7 6.7 -10.8
v 0.9 6.7 -11
v 3.1 6.7 -11
v 3.6 6.7 -11.1
v 4.9 6.7 -11.1
v 6.2 6.7 -11.1
v 6.6 6.7 -11.1
v 5.6 6.7 -11.3
v 5.9 6.7 -11.3
v 7.3 6.7 -11.3
v 8.9 6.7 -11.3
v 6.2 6.7 -11.4
v 6.6 6.7 -11.4
v 5.9 6.7 -11.7
v 6.2 6.7 -11.7
v 0.9 6.7 -11.8
v 3.1 6.7 -11.8
v 6.5 6.7 -11.9
v 6.9 6.7 -11.9
v 5.9 6.7 -12
v 6.2 6.7 -12
v 6.5 6.7 -12.1
v 6.9 6.7 -12.1
v 7.3 6.7 -12.1
v 8.9 6.7 -12.1
v 10 6.7 -12.1
v 11.9 6.7 -12.1
v 5.8 6.7 -12.2
v 6 6.7 -12.2
v 3.6 6.7 -12.4
v 4.9 6.7 -12.4
v 5.8 6.7 -12.4
v 6 6.7 -12.4
v 0 6.7 -12.6
v 5.5 6.7 -12.6
v 7 6.7 -12.6
v 12.6 6.7 -12.6

# faces
f 3/2/1 2/2/1 1/2/1
f 4/2/1 2/2/1 3/2/1
f 5/2/2 6/2/2 7/2/2
f 7/2/2 6/2/2 8/2/2
f 11/2/3 10/2/3 9/2/3
f 12/2/3 10/2/3 11/2/3
f 13/2/4 14/2/4 15/2/4
f 15/2/4 14/2/4 16/2/4
f 13/2/4 15/2/4 17/2/4
f 15/6/4 16/6/4 17/6/4
f 17/6/4 16/6/4 18/6/4
f 13/2/4 17/2/4 19/2/4
f 17/2/4 18/2/4 19/2/4
f 19/2/4 18/2/4 20/2/4
f 23/2/5 22/2/5 21/2/5
f 24/2/5 22/2/5 23/2/5
f 25/2/6 26/2/6 27/2/6
f 27/2/6 26/2/6 28/2/6
f 28/2/6 26/2/6 29/2/6
f 29/2/6 26/2/6 30/2/6
f 25/2/6 27/2/6 31/2/6
f 31/2/6 27/2/6 32/2/6
f 32/2/6 27/2/6 33/2/6
f 33/2/6 27/2/6 34/2/6
f 34/2/6 27/2/6 35/2/6
f 35/2/6 27/2/6 36/2/6
f 28/2/6 29/2/6 37/2/6
f 37/2/6 29/2/6 38/2/6
f 27/3/6 28/3/6 39/3/6
f 36/2/6 27/2/6 39/2/6
f 28/2/6 37/2/6 40/2/6
f 39/3/6 28/3/6 40/3/6
f 37/3/6 38/3/6 41/3/6
f 40/2/6 37/2/6 41/2/6
f 39/2/6 40/2/6 41/2/6
f 38/2/6 29/2/6 42/2/6
f 41/3/6 38/3/6 42/3/6
f 34/2/6 35/2/6 43/2/6
f 35/3/6 36/3/6 43/3/6
f 39/2/6 41/2/6 44/2/6
f 43/3/6 36/3/6 44/3/6
f 36/2/6 39/2/6 44/2/6
f 41/2/6 42/2/6 44/2/6
f 42/2/6 29/2/6 45/2/6
f 44/2/6 42/2/6 45/2/6
f 43/2/6 44/2/6 45/2/6
f 29/3/6 30/3/6 45/3/6
f 30/2/6 26/2/6 46/2/6
f 45/3/6 30/3/6 46/3/6
f 33/3/6 34/3/6 47/3/6
f 32/2/6 33/2/6 47/2/6
f 43/2/6 45/2/6 48/2/6
f 47/3/6 34/3/6 48/3/6
f 34/2/6 43/2/6 48/2/6
f 45/2/6 46/2/6 48/2/6
f 47/2/6 48/2/6 49/2/6
f 48/2/6 46/2/6 49/2/6
f 49/2/6 46/2/6 50/2/6
f 50/2/6 46/2/6 51/2/6
f 51/2/6 46/2/6 52/2/6
f 52/2/6 46/2/6 53/2/6
f 53/2/6 46/2/6 54/2/6
f 47/2/6 49/2/6 55/2/6
f 55/2/6 49/2/6 56/2/6
f 56/2/6 49/2/6 57/2/6
f 57/2/6 49/2/6 58/2/6
f 49/3/6 50/3/6 59/3/6
f 58/2/6 49/2/6 59/2/6
f 50/2/6 51/2/6 60/2/6
f 59/3/6 50/3/6 60/3/6
f 47/2/6 55/2/6 61/2/6
f 55/3/6 56/3/6 61/3/6
f 56/2/6 57/2/6 62/2/6
f 61/3/6 56/3/6 62/3/6
f 51/3/6 52/3/6 63/3/6
f 60/2/6 51/2/6 63/2/6
f 59/2/6 60/2/6 63/2/6
f 52/2/6 53/2/6 64/2/6
f 63/3/6 52/3/6 64/3/6
f 57/3/6 58/3/6 65/3/6
f 62/2/6 57/2/6 65/2/6
f 61/2/6 62/2/6 65/2/6
f 58/2/6 59/2/6 66/2/6
f 65/3/6 58/3/6 66/3/6
f 63/2/6 64/2/6 66/2/6
f 59/2/6 63/2/6 66/2/6
f 32/2/6 47/2/6 67/2/6
f 61/2/6 65/2/6 67/2/6
f 65/2/6 66/2/6 67/2/6
f 47/2/6 61/2/6 67/2/6
f 67/2/6 66/2/6 68/2/6
f 68/2/6 66/2/6 69/2/6
f 66/2/6 64/2/6 70/2/6
f 69/2/6 66/2/6 70/2/6
f 68/2/6 69/2/6 71/2/6
f 71/2/6 69/2/6 72/2/6
f 70/2/6 64/2/6 73/2/6
f 73/2/6 64/2/6 74/2/6
f 54/2/6 46/2/6 75/2/6
f 46/2/6 26/2/6 76/2/6
f 75/2/6 46/2/6 76/2/6
f 31/3/6 32/3/6 77/3/6
f 25/2/6 31/2/6 77/2/6
f 32/2/6 67/2/6 78/2/6
f 77/3/6 32/3/6 78/3/6
f 74/2/6 64/2/6 79/2/6
f 64/2/6 53/2/6 79/2/6
f 53/3/6 54/3/6 79/3/6
f 54/2/6 75/2/6 80/2/6
f 79/3/6 54/3/6 80/3/6
f 77/2/6 78/2/6 81/2/6
f 25/2/6 77/2/6 81/2/6
f 78/2/6 67/2/6 82/2/6
f 81/2/6 78/2/6 82/2/6
f 72/2/6 69/2/6 83/2/6
f 69/3/6 70/3/6 83/3/6
f 70/2/6 73/2/6 84/2/6
f 83/3/6 70/3/6 84/3/6
f 74/2/6 79/2/6 85/2/6
f 79/2/6 80/2/6 85/2/6
f 85/2/6 80/2/6 86/2/6
f 82/2/6 67/2/6 87/2/6
f 67/3/6 68/3/6 87/3/6
f 68/2/6 71/2/6 88/2/6
f 87/3/6 68/3/6 88/3/6
f 71/3/6 72/3/6 89/3/6
f 88/2/6 71/2/6 89/2/6
f 83/2/6 84/2/6 90/2/6
f 89/3/6 72/3/6 90/3/6
f 72/2/6 83/2/6 90/2/6
f 86/2/6 80/2/6 91/2/6
f 75/3/6 76/3/6 91/3/6
f 80/2/6 75/2/6 91/2/6
f 76/2/6 26/2/6 92/2/6
f 91/3/6 76/3/6 92/3/6
f 90/2/6 84/2/6 93/2/6
f 89/2/6 90/2/6 93/2/6
f 88/2/6 89/2/6 93/2/6
f 87/2/6 88/2/6 93/2/6
f 84/2/6 73/2/6 94/2/6
f 93/2/6 84/2/6 94/2/6
f 73/3/6 74/3/6 95/3/6
f 94/2/6 73/2/6 95/2/6
f 74/2/6 85/2/6 96/2/6
f 95/3/6 74/3/6 96/3/6
f 25/2/6 81/2/6 97/2/6
f 81/3/6 82/3/6 97/3/6
f 87/2/6 93/2/6 98/2/6
f 97/3/6 82/3/6 98/3/6
f 82/2/6 87/2/6 98/2/6
f 96/2/6 85/2/6 99/2/6
f 94/2/6 95/2/6 99/2/6
f 95/2/6 96/2/6 99/2/6
f 85/3/6 86/3/6 99/3/6
f 86/2/6 91/2/6 100/2/6
f 99/3/6 86/3/6 100/3/6
f 91/2/6 92/2/6 100/2/6
f 98/2/6 93/2/6 101/2/6
f 97/2/6 98/2/6 101/2/6
f 101/2/6 93/2/6 102/2/6
f 94/2/6 99/2/6 103/2/6
f 99/2/6 100/2/6 103/2/6
f 103/2/6 100/2/6 104/2/6
f 97/2/6 101/2/6 105/2/6
f 105/2/6 101/2/6 106/2/6
f 106/2/6 101/2/6 107/2/6
f 107/2/6 101/2/6 108/2/6
f 104/2/6 100/2/6 109/2/6
f 100/2/6 92/2/6 110/2/6
f 109/2/6 100/2/6 110/2/6
f 101/3/6 102/3/6 111/3/6
f 108/2/6 101/2/6 111/2/6
f 102/2/6 93/2/6 112/2/6
f 111/3/6 102/3/6 112/3/6
f 94/2/6 103/2/6 113/2/6
f 103/3/6 104/3/6 113/3/6
f 104/2/6 109/2/6 114/2/6
f 113/3/6 104/3/6 114/3/6
f 109/3/6 110/3/6 115/3/6
f 114/2/6 109/2/6 115/2/6
f 113/2/6 114/2/6 115/2/6
f 110/2/6 92/2/6 116/2/6
f 115/3/6 110/3/6 116/3/6
f 107/3/6 108/3/6 117/3/6
f 106/2/6 107/2/6 117/2/6
f 108/2/6 111/2/6 118/2/6
f 117/3/6 108/3/6 118/3/6
f 111/2/6 112/2/6 118/2/6
f 93/3/6 94/3/6 119/3/6
f 118/2/6 112/2/6 119/2/6
f 112/2/6 93/2/6 119/2/6
f 94/2/6 113/2/6 120/2/6
f 119/3/6 94/3/6 120/3/6
f 113/2/6 115/2/6 120/2/6
f 115/2/6 116/2/6 120/2/6
f 97/2/6 105/2/6 121/2/6
f 105/3/6 106/3/6 121/3/6
f 106/2/6 117/2/6 122/2/6
f 121/3/6 106/3/6 122/3/6
f 117/2/6 118/2/6 122/2/6
f 119/2/6 120/2/6 122/2/6
f 118/2/6 119/2/6 122/2/6
f 120/2/6 116/2/6 123/2/6
f 122/2/6 120/2/6 123/2/6
f 123/2/6 116/2/6 124/2/6
f 121/2/6 122/2/6 125/2/6
f 122/2/6 123/2/6 125/2/6
f 125/2/6 123/2/6 126/2/6
f 123/3/6 124/3/6 127/3/6
f 126/2/6 123/2/6 127/2/6
f 124/2/6 116/2/6 128/2/6
f 127/3/6 124/3/6 128/3/6
f 121/2/6 125/2/6 129/2/6
f 129/2/6 125/2/6 130/2/6
f 127/2/6 128/2/6 131/2/6
f 116/2/6 92/2/6 132/2/6
f 131/2/6 128/2/6 132/2/6
f 128/2/6 116/2/6 132/2/6
f 127/2/6 131/2/6 133/2/6
f 126/2/6 127/2/6 133/2/6
f 133/2/6 131/2/6 134/2/6
f 97/2/6 121/2/6 135/2/6
f 25/2/6 97/2/6 135/2/6
f 121/2/6 129/2/6 135/2/6
f 135/2/6 129/2/6 136/2/6
f 125/3/6 126/3/6 137/3/6
f 130/2/6 125/2/6 137/2/6
f 126/2/6 133/2/6 138/2/6
f 137/3/6 126/3/6 138/3/6
f 136/2/6 129/2/6 139/2/6
f 129/3/6 130/3/6 139/3/6
f 137/2/6 138/2/6 140/2/6
f 139/3/6 130/3/6 140/3/6
f 130/2/6 137/2/6 140/2/6
f 133/3/6 134/3/6 141/3/6
f 140/2/6 138/2/6 141/2/6
f 139/2/6 140/2/6 141/2/6
f 138/2/6 133/2/6 141/2/6
f 134/2/6 131/2/6 142/2/6
f 141/3/6 134/3/6 142/3/6
f 139/2/6 141/2/6 143/2/6
f 141/2/6 142/2/6 143/2/6
f 143/2/6 142/2/6 144/2/6
f 142/2/6 131/2/6 145/2/6
f 144/2/6 142/2/6 145/2/6
f 131/3/6 132/3/6 145/3/6
f 132/2/6 92/2/6 146/2/6
f 145/3/6 132/3/6 146/3/6
f 143/3/6 144/3/6 147/3/6
f 139/2/6 143/2/6 147/2/6
f 144/2/6 145/2/6 148/2/6
f 147/3/6 144/3/6 148/3/6
f 145/2/6 146/2/6 148/2/6
f 147/2/6 148/2/6 149/2/6
f 148/2/6 146/2/6 149/2/6
f 149/2/6 146/2/6 150/2/6
f 139/2/6 147/2/6 151/2/6
f 136/2/6 139/2/6 151/2/6
f 147/2/6 149/2/6 151/2/6
f 151/2/6 149/2/6 152/2/6
f 150/2/6 146/2/6 153/2/6
f 146/2/6 92/2/6 154/2/6
f 153/2/6 146/2/6 154/2/6
f 25/2/6 135/2/6 155/2/6
f 135/3/6 136/3/6 155/3/6
f 136/2/6 151/2/6 156/2/6
f 155/3/6 136/3/6 156/3/6
f 151/3/6 152/3/6 157/3/6
f 156/2/6 151/2/6 157/2/6
f 155/2/6 156/2/6 157/2/6
f 152/2/6 149/2/6 158/2/6
f 157/3/6 152/3/6 158/3/6
f 149/3/6 150/3/6 159/3/6
f 158/2/6 149/2/6 159/2/6
f 157/2/6 158/2/6 159/2/6
f 150/2/6 153/2/6 160/2/6
f 159/3/6 150/3/6 160/3/6
f 157/2/6 159/2/6 161/2/6
f 159/2/6 160/2/6 161/2/6
f 161/2/6 160/2/6 162/2/6
f 162/2/6 160/2/6 163/2/6
f 163/2/6 160/2/6 164/2/6
f 155/2/6 157/2/6 165/2/6
f 157/2/6 161/2/6 165/2/6
f 165/2/6 161/2/6 166/2/6
f 166/2/6 161/2/6 167/2/6
f 167/2/6 161/2/6 168/2/6
f 163/6/6 164/6/6 169/6/6
f 169/6/6 164/6/6 170/6/6
f 161/6/6 162/6/6 171/6/6
f 162/5/6 163/5/6 171/5/6
f 163/6/6 169/6/6 172/6/6
f 171/5/6 163/5/6 172/5/6
f 164/2/6 160/2/6 173/2/6
f 173/2/6 160/2/6 174/2/6
f 172/6/6 169/6/6 175/6/6
f 169/5/6 170/5/6 175/5/6
f 171/6/6 172/6/6 175/6/6
f 170/6/6 164/6/6 176/6/6
f 175/5/6 170/5/6 176/5/6
f 171/6/6 175/6/6 177/6/6
f 175/6/6 176/6/6 177/6/6
f 177/6/6 176/6/6 178/6/6
f 155/2/6 165/2/6 179/2/6
f 165/3/6 166/3/6 179/3/6
f 166/2/6 167/2/6 180/2/6
f 179/3/6 166/3/6 180/3/6
f 178/6/6 176/6/6 181/6/6
f 176/6/6 164/6/6 182/6/6
f 181/6/6 176/6/6 182/6/6
f 177/5/6 178/5/6 183/5/6
f 171/6/6 177/6/6 183/6/6
f 178/6/6 181/6/6 184/6/6
f 183/5/6 178/5/6 184/5/6
f 181/5/6 182/5/6 185/5/6
f 184/6/6 181/6/6 185/6/6
f 183/6/6 184/6/6 185/6/6
f 182/6/6 164/6/6 186/6/6
f 185/5/6 182/5/6 186/5/6
f 173/3/6 174/3/6 187/3/6
f 164/2/6 173/2/6 187/2/6
f 174/2/6 160/2/6 188/2/6
f 187/3/6 174/3/6 188/3/6
f 160/2/6 153/2/6 189/2/6
f 188/2/6 160/2/6 189/2/6
f 153/3/6 154/3/6 189/3/6
f 154/2/6 92/2/6 190/2/6
f 189/3/6 154/3/6 190/3/6
f 171/6/6 183/6/6 191/6/6
f 183/6/6 185/6/6 191/6/6
f 185/6/6 186/6/6 191/6/6
f 191/6/6 186/6/6 192/6/6
f 179/2/6 180/2/6 193/2/6
f 180/2/6 167/2/6 193/2/6
f 167/3/6 168/3/6 193/3/6
f 168/2/6 161/2/6 194/2/6
f 193/3/6 168/3/6 194/3/6
f 191/5/6 192/5/6 195/5/6
f 171/6/6 191/6/6 195/6/6
f 192/6/6 186/6/6 196/6/6
f 195/5/6 192/5/6 196/5/6
f 25/2/6 155/2/6 197/2/6
f 179/2/6 193/2/6 197/2/6
f 155/2/6 179/2/6 197/2/6
f 193/2/6 194/2/6 197/2/6
f 171/6/6 195/6/6 198/6/6
f 197/2/6 194/2/6 198/2/6
f 195/6/6 196/6/6 198/6/6
f 161/6/6 171/6/6 198/6/6
f 194/2/6 161/2/6 198/2/6
f 187/2/6 188/2/6 199/2/6
f 198/6/6 196/6/6 199/6/6
f 188/2/6 189/2/6 199/2/6
f 186/6/6 164/6/6 199/6/6
f 164/2/6 187/2/6 199/2/6
f 189/2/6 190/2/6 199/2/6
f 196/6/6 186/6/6 199/6/6
f 92/2/6 26/2/6 200/2/6
f 199/2/6 190/2/6 200/2/6
f 190/2/6 92/2/6 200/2/6
