# MagicaVoxel @ Ephtracy

# group
o RaspilenniyStrazh

# material
mtllib severus-4-RaspilenniyStrazh.mtl
usemtl palette

# normals
vn -1 0 0
vn 1 0 0
vn 0 0 1
vn 0 0 -1
vn 0 -1 0
vn 0 1 0

# texcoords
vt 0.146484 0.5
vt 0.208984 0.5
vt 0.373047 0.5
vt 0.974609 0.5
vt 0.986328 0.5

# verts
v 0.6 3.8 3.1
v 0.6 3.8 3
v 0.6 4 3
v 0.6 4 2.9
v 0.6 4.1 3.1
v 0.6 4.1 3
v 0.6 4.3 3
v 0.6 4.3 2.9
v 0.6 4.4 3
v 0.6 4.4 2.9
v 0.6 4.5 3
v 0.6 4.5 2.9
v 0.7 3.6 3.1
v 0.7 3.6 3
v 0.7 3.8 3.1
v 0.7 3.8 3
v 0.7 4.3 3
v 0.7 4.3 2.9
v 0.7 4.4 3.1
v 0.7 4.4 3
v 0.7 4.4 2.9
v 0.7 4.4 2.8
v 0.7 4.5 3.1
v 0.7 4.5 3
v 0.7 4.5 2.9
v 0.7 4.5 2.8
v 0.7 4.6 3
v 0.7 4.6 2.9
v 0.7 3.9 3.1
v 0.7 3.9 3
v 0.7 4 3
v 0.7 4 2.9
v 0.7 4.1 3.1
v 0.7 4.1 3
v 0.7 4.2 3
v 0.7 4.2 2.9
v 0.8 3.6 3.1
v 0.8 3.6 3
v 0.8 3.9 3.1
v 0.8 3.9 3
v 0.8 4.2 3
v 0.8 4.2 2.9
v 0.8 4.4 3.1
v 0.8 4.4 3
v 0.8 4.4 2.9
v 0.8 4.4 2.8
v 0.8 4.5 3.1
v 0.8 4.5 3
v 0.8 4.5 2.9
v 0.8 4.5 2.8
v 0.8 4.6 3
v 0.8 4.6 2.9
v 0.9 4.4 3
v 0.9 4.4 2.9
v 0.9 4.5 3
v 0.9 4.5 2.9
v 0.6 3.8 3.1
v 0.6 4.1 3.1
v 0.7 3.6 3.1
v 0.7 3.8 3.1
v 0.7 3.9 3.1
v 0.7 4.1 3.1
v 0.7 4.4 3.1
v 0.7 4.5 3.1
v 0.8 3.6 3.1
v 0.8 3.9 3.1
v 0.8 4.4 3.1
v 0.8 4.5 3.1
v 0.6 4.1 3
v 0.6 4.3 3
v 0.6 4.4 3
v 0.6 4.5 3
v 0.7 4.1 3
v 0.7 4.2 3
v 0.7 4.3 3
v 0.7 4.4 3
v 0.7 4.5 3
v 0.7 4.6 3
v 0.8 4.2 3
v 0.8 4.4 3
v 0.8 4.5 3
v 0.8 4.6 3
v 0.9 4.4 3
v 0.9 4.5 3
v 0.6 3.8 3
v 0.6 4 3
v 0.7 3.6 3
v 0.7 3.8 3
v 0.7 3.9 3
v 0.7 4 3
v 0.8 3.6 3
v 0.8 3.9 3
v 0.6 4 2.9
v 0.6 4.3 2.9
v 0.6 4.4 2.9
v 0.6 4.5 2.9
v 0.7 4 2.9
v 0.7 4.2 2.9
v 0.7 4.3 2.9
v 0.7 4.4 2.9
v 0.7 4.5 2.9
v 0.7 4.6 2.9
v 0.8 4.2 2.9
v 0.8 4.4 2.9
v 0.8 4.5 2.9
v 0.8 4.6 2.9
v 0.9 4.4 2.9
v 0.9 4.5 2.9
v 0.7 4.4 2.8
v 0.7 4.5 2.8
v 0.8 4.4 2.8
v 0.8 4.5 2.8
v 0.7 3.6 3.1
v 0.8 3.6 3.1
v 0.7 3.6 3
v 0.8 3.6 3
v 0.6 3.8 3.1
v 0.7 3.8 3.1
v 0.6 3.8 3
v 0.7 3.8 3
v 0.6 4 3
v 0.7 4 3
v 0.6 4 2.9
v 0.7 4 2.9
v 0.7 4.2 3
v 0.8 4.2 3
v 0.7 4.2 2.9
v 0.8 4.2 2.9
v 0.7 4.4 3.1
v 0.8 4.4 3.1
v 0.6 4.4 3
v 0.7 4.4 3
v 0.8 4.4 3
v 0.9 4.4 3
v 0.6 4.4 2.9
v 0.7 4.4 2.9
v 0.8 4.4 2.9
v 0.9 4.4 2.9
v 0.7 4.4 2.8
v 0.8 4.4 2.8
v 0.7 3.9 3.1
v 0.8 3.9 3.1
v 0.7 3.9 3
v 0.8 3.9 3
v 0.6 4.1 3.1
v 0.7 4.1 3.1
v 0.6 4.1 3
v 0.7 4.1 3
v 0.6 4.3 3
v 0.7 4.3 3
v 0.6 4.3 2.9
v 0.7 4.3 2.9
v 0.7 4.5 3.1
v 0.8 4.5 3.1
v 0.6 4.5 3
v 0.7 4.5 3
v 0.8 4.5 3
v 0.9 4.5 3
v 0.6 4.5 2.9
v 0.7 4.5 2.9
v 0.8 4.5 2.9
v 0.9 4.5 2.9
v 0.7 4.5 2.8
v 0.8 4.5 2.8
v 0.7 4.6 3
v 0.8 4.6 3
v 0.7 4.6 2.9
v 0.8 4.6 2.9

# faces
f 3/5/1 2/5/1 1/5/1
f 5/5/1 3/5/1 1/5/1
f 5/5/1 4/5/1 3/5/1
f 6/5/1 4/5/1 5/5/1
f 7/5/1 4/5/1 6/5/1
f 8/5/1 4/5/1 7/5/1
f 11/2/1 10/2/1 9/2/1
f 12/2/1 10/2/1 11/2/1
f 15/5/1 14/5/1 13/5/1
f 16/5/1 14/5/1 15/5/1
f 20/5/1 18/5/1 17/5/1
f 21/5/1 18/5/1 20/5/1
f 23/3/1 20/3/1 19/3/1
f 24/3/1 20/3/1 23/3/1
f 25/3/1 22/3/1 21/3/1
f 26/3/1 22/3/1 25/3/1
f 27/1/1 25/1/1 24/1/1
f 28/1/1 25/1/1 27/1/1
f 29/5/2 30/5/2 31/5/2
f 29/5/2 31/5/2 33/5/2
f 31/5/2 32/5/2 33/5/2
f 33/5/2 32/5/2 34/5/2
f 34/5/2 32/5/2 35/5/2
f 35/5/2 32/5/2 36/5/2
f 37/5/2 38/5/2 39/5/2
f 39/5/2 38/5/2 40/5/2
f 41/5/2 42/5/2 44/5/2
f 44/5/2 42/5/2 45/5/2
f 43/3/2 44/3/2 47/3/2
f 47/3/2 44/3/2 48/3/2
f 45/3/2 46/3/2 49/3/2
f 49/3/2 46/3/2 50/3/2
f 48/1/2 49/1/2 51/1/2
f 51/1/2 49/1/2 52/1/2
f 53/2/2 54/2/2 55/2/2
f 55/2/2 54/2/2 56/2/2
f 60/5/3 58/5/3 57/5/3
f 61/5/3 58/5/3 60/5/3
f 62/5/3 58/5/3 61/5/3
f 65/5/3 60/5/3 59/5/3
f 65/5/3 61/5/3 60/5/3
f 66/5/3 61/5/3 65/5/3
f 67/3/3 64/3/3 63/3/3
f 68/3/3 64/3/3 67/3/3
f 73/5/3 70/5/3 69/5/3
f 74/5/3 70/5/3 73/5/3
f 75/5/3 70/5/3 74/5/3
f 76/2/3 72/2/3 71/2/3
f 77/2/3 72/2/3 76/2/3
f 79/5/3 75/5/3 74/5/3
f 79/5/3 76/5/3 75/5/3
f 80/5/3 76/5/3 79/5/3
f 81/1/3 78/1/3 77/1/3
f 82/1/3 78/1/3 81/1/3
f 83/2/3 81/2/3 80/2/3
f 84/2/3 81/2/3 83/2/3
f 85/5/4 86/5/4 88/5/4
f 88/5/4 86/5/4 89/5/4
f 89/5/4 86/5/4 90/5/4
f 87/5/4 88/5/4 91/5/4
f 88/5/4 89/5/4 91/5/4
f 91/5/4 89/5/4 92/5/4
f 93/5/4 94/5/4 97/5/4
f 97/5/4 94/5/4 98/5/4
f 98/5/4 94/5/4 99/5/4
f 95/2/4 96/2/4 100/2/4
f 100/2/4 96/2/4 101/2/4
f 98/5/4 99/5/4 103/5/4
f 99/5/4 100/5/4 103/5/4
f 103/5/4 100/5/4 104/5/4
f 101/1/4 102/1/4 105/1/4
f 105/1/4 102/1/4 106/1/4
f 104/2/4 105/2/4 107/2/4
f 107/2/4 105/2/4 108/2/4
f 109/3/4 110/3/4 111/3/4
f 111/3/4 110/3/4 112/3/4
f 115/5/5 114/5/5 113/5/5
f 116/5/5 114/5/5 115/5/5
f 119/5/5 118/5/5 117/5/5
f 120/5/5 118/5/5 119/5/5
f 123/5/5 122/5/5 121/5/5
f 124/5/5 122/5/5 123/5/5
f 127/5/5 126/5/5 125/5/5
f 128/5/5 126/5/5 127/5/5
f 132/3/5 130/3/5 129/3/5
f 133/3/5 130/3/5 132/3/5
f 135/2/5 132/2/5 131/2/5
f 136/2/5 132/2/5 135/2/5
f 137/2/5 134/2/5 133/2/5
f 138/2/5 134/2/5 137/2/5
f 139/3/5 137/3/5 136/3/5
f 140/3/5 137/3/5 139/3/5
f 141/5/6 142/5/6 143/5/6
f 143/5/6 142/5/6 144/5/6
f 145/5/6 146/5/6 147/5/6
f 147/5/6 146/5/6 148/5/6
f 149/5/6 150/5/6 151/5/6
f 151/5/6 150/5/6 152/5/6
f 153/3/6 154/3/6 156/3/6
f 156/3/6 154/3/6 157/3/6
f 155/2/6 156/2/6 159/2/6
f 159/2/6 156/2/6 160/2/6
f 157/2/6 158/2/6 161/2/6
f 161/2/6 158/2/6 162/2/6
f 160/3/6 161/3/6 163/3/6
f 163/3/6 161/3/6 164/3/6
f 165/1/6 166/1/6 167/1/6
f 167/1/6 166/1/6 168/1/6
