# MagicaVoxel @ Ephtracy

# group
o 

# material
mtllib pers-3.mtl
usemtl palette

# normals
vn -1 0 0
vn 1 0 0
vn 0 0 1
vn 0 0 -1
vn 0 -1 0
vn 0 1 0

# texcoords
vt 0.224609 0.5
vt 0.275391 0.5
vt 0.994141 0.5

# verts
v 0.3 3.2 12.4
v 0.3 3.2 12.3
v 0.3 3.4 12.4
v 0.3 3.4 12.3
v 0.3 3.5 12.4
v 0.3 3.5 12.3
v 0.3 5.1 12.4
v 0.3 5.1 12.3
v 0.4 3 12.4
v 0.4 3 12.3
v 0.4 3.2 12.4
v 0.4 3.2 12.3
v 0.4 3.2 12.2
v 0.4 3.4 12.3
v 0.4 3.4 12.2
v 0.4 3.5 12.3
v 0.4 3.5 12.2
v 0.4 4.1 12.5
v 0.4 4.1 12.4
v 0.4 4.1 12.2
v 0.4 4.1 12.1
v 0.4 5.1 12.5
v 0.4 5.1 12.4
v 0.4 5.1 12.3
v 0.4 5.1 12.1
v 0.4 5.2 12.4
v 0.4 5.2 12.3
v 0.5 2.9 12.5
v 0.5 2.9 12.4
v 0.5 3 12.4
v 0.5 3.2 12.5
v 0.5 3.2 12.4
v 0.5 3.2 12.2
v 0.5 3.2 12.1
v 0.5 3.4 12.6
v 0.5 3.4 12.4
v 0.5 3.4 12.2
v 0.5 3.4 12.1
v 0.5 3.5 12.6
v 0.5 3.5 12.4
v 0.5 3.5 12.2
v 0.5 3.5 12.1
v 0.5 4.1 12.5
v 0.5 4.1 12.4
v 0.5 4.1 12.2
v 0.5 4.1 12.1
v 0.5 5.1 12.6
v 0.5 5.1 12.5
v 0.5 5.1 12.4
v 0.5 5.1 12.3
v 0.5 5.1 12.2
v 0.5 5.2 12.5
v 0.5 5.2 12.4
v 0.5 5.2 12.3
v 0.5 5.2 12.2
v 0.6 2.9 12.5
v 0.6 2.9 12.4
v 0.6 3 12.4
v 0.6 3 12.3
v 0.6 3.2 12.5
v 0.6 3.2 12.4
v 0.6 3.2 12.3
v 0.6 3.2 12.1
v 0.6 3.4 12.6
v 0.6 3.4 12.4
v 0.6 3.4 12.3
v 0.6 3.4 12.1
v 0.6 3.5 12.6
v 0.6 3.5 12.4
v 0.6 3.5 12.3
v 0.6 3.5 12.1
v 0.6 4 12.5
v 0.6 4 12.4
v 0.6 4 12.3
v 0.6 4 12.2
v 0.6 4.1 12.2
v 0.6 4.1 12.1
v 0.6 5.1 12.6
v 0.6 5.1 12.5
v 0.6 5.1 12.4
v 0.6 5.1 12.3
v 0.6 5.1 12.2
v 0.6 5.2 12.5
v 0.6 5.2 12.4
v 0.6 5.2 12.3
v 0.6 5.2 12.2
v 0.7 4 12.5
v 0.7 4 12.4
v 0.7 4.1 12.2
v 0.7 4.1 12.1
v 0.7 5.1 12.5
v 0.7 5.1 12.4
v 0.7 5.1 12.3
v 0.7 5.1 12.2
v 0.7 5.1 12.1
v 0.7 5.2 12.4
v 0.7 5.2 12.3
v 0.8 3.2 12.4
v 0.8 3.2 12.3
v 0.8 3.4 12.4
v 0.8 3.4 12.3
v 0.8 3.5 12.4
v 0.8 3.5 12.3
v 0.8 4 12.3
v 0.8 4 12.2
v 0.8 5.1 12.4
v 0.8 5.1 12.2
v 0.5 3.4 12.6
v 0.5 3.5 12.6
v 0.5 5.1 12.6
v 0.6 3.4 12.6
v 0.6 3.5 12.6
v 0.6 5.1 12.6
v 0.4 4.1 12.5
v 0.4 5.1 12.5
v 0.5 2.9 12.5
v 0.5 3.2 12.5
v 0.5 4.1 12.5
v 0.5 5.1 12.5
v 0.5 5.2 12.5
v 0.6 2.9 12.5
v 0.6 3.2 12.5
v 0.6 4 12.5
v 0.6 5.1 12.5
v 0.6 5.2 12.5
v 0.7 4 12.5
v 0.7 5.1 12.5
v 0.3 3.2 12.4
v 0.3 3.4 12.4
v 0.3 3.5 12.4
v 0.3 5.1 12.4
v 0.4 3 12.4
v 0.4 3.2 12.4
v 0.4 4.1 12.4
v 0.4 5.1 12.4
v 0.4 5.2 12.4
v 0.5 3 12.4
v 0.5 3.2 12.4
v 0.5 3.4 12.4
v 0.5 3.5 12.4
v 0.5 4.1 12.4
v 0.5 5.1 12.4
v 0.5 5.2 12.4
v 0.6 3.2 12.4
v 0.6 3.4 12.4
v 0.6 3.5 12.4
v 0.6 4 12.4
v 0.6 5.1 12.4
v 0.6 5.2 12.4
v 0.7 4 12.4
v 0.7 5.1 12.4
v 0.7 5.2 12.4
v 0.8 3.2 12.4
v 0.8 3.4 12.4
v 0.8 3.5 12.4
v 0.8 5.1 12.4
v 0.5 2.9 12.4
v 0.5 3 12.4
v 0.6 2.9 12.4
v 0.6 3 12.4
v 0.3 3.2 12.3
v 0.3 3.4 12.3
v 0.3 3.5 12.3
v 0.3 5.1 12.3
v 0.4 3 12.3
v 0.4 3.2 12.3
v 0.4 3.4 12.3
v 0.4 3.5 12.3
v 0.4 5.1 12.3
v 0.4 5.2 12.3
v 0.5 5.1 12.3
v 0.5 5.2 12.3
v 0.6 3 12.3
v 0.6 3.2 12.3
v 0.6 3.4 12.3
v 0.6 3.5 12.3
v 0.6 4 12.3
v 0.6 5.1 12.3
v 0.6 5.2 12.3
v 0.7 5.1 12.3
v 0.7 5.2 12.3
v 0.8 3.2 12.3
v 0.8 3.4 12.3
v 0.8 3.5 12.3
v 0.8 4 12.3
v 0.4 3.2 12.2
v 0.4 3.4 12.2
v 0.4 3.5 12.2
v 0.4 4.1 12.2
v 0.5 3.2 12.2
v 0.5 3.4 12.2
v 0.5 3.5 12.2
v 0.5 4.1 12.2
v 0.5 5.1 12.2
v 0.5 5.2 12.2
v 0.6 4 12.2
v 0.6 4.1 12.2
v 0.6 5.1 12.2
v 0.6 5.2 12.2
v 0.7 4.1 12.2
v 0.7 5.1 12.2
v 0.8 4 12.2
v 0.8 5.1 12.2
v 0.4 4.1 12.1
v 0.4 5.1 12.1
v 0.5 3.2 12.1
v 0.5 3.4 12.1
v 0.5 3.5 12.1
v 0.5 4.1 12.1
v 0.6 3.2 12.1
v 0.6 3.4 12.1
v 0.6 3.5 12.1
v 0.6 4.1 12.1
v 0.7 4.1 12.1
v 0.7 5.1 12.1
v 0.5 2.9 12.5
v 0.6 2.9 12.5
v 0.5 2.9 12.4
v 0.6 2.9 12.4
v 0.4 3 12.4
v 0.5 3 12.4
v 0.6 3 12.4
v 0.4 3 12.3
v 0.6 3 12.3
v 0.3 3.2 12.4
v 0.4 3.2 12.4
v 0.6 3.2 12.4
v 0.8 3.2 12.4
v 0.3 3.2 12.3
v 0.4 3.2 12.3
v 0.6 3.2 12.3
v 0.8 3.2 12.3
v 0.4 3.2 12.2
v 0.5 3.2 12.2
v 0.5 3.2 12.1
v 0.6 3.2 12.1
v 0.5 3.4 12.6
v 0.6 3.4 12.6
v 0.5 3.4 12.4
v 0.6 3.4 12.4
v 0.6 4 12.5
v 0.7 4 12.5
v 0.6 4 12.4
v 0.7 4 12.4
v 0.6 4 12.3
v 0.8 4 12.3
v 0.6 4 12.2
v 0.8 4 12.2
v 0.4 4.1 12.5
v 0.5 4.1 12.5
v 0.4 4.1 12.4
v 0.5 4.1 12.4
v 0.4 4.1 12.2
v 0.5 4.1 12.2
v 0.6 4.1 12.2
v 0.7 4.1 12.2
v 0.4 4.1 12.1
v 0.5 4.1 12.1
v 0.6 4.1 12.1
v 0.7 4.1 12.1
v 0.5 3.2 12.5
v 0.6 3.2 12.5
v 0.5 3.2 12.4
v 0.6 3.2 12.4
v 0.5 5.1 12.6
v 0.6 5.1 12.6
v 0.4 5.1 12.5
v 0.5 5.1 12.5
v 0.6 5.1 12.5
v 0.7 5.1 12.5
v 0.3 5.1 12.4
v 0.4 5.1 12.4
v 0.5 5.1 12.4
v 0.6 5.1 12.4
v 0.7 5.1 12.4
v 0.8 5.1 12.4
v 0.3 5.1 12.3
v 0.4 5.1 12.3
v 0.5 5.1 12.3
v 0.6 5.1 12.3
v 0.7 5.1 12.3
v 0.5 5.1 12.2
v 0.6 5.1 12.2
v 0.7 5.1 12.2
v 0.8 5.1 12.2
v 0.4 5.1 12.1
v 0.7 5.1 12.1
v 0.5 5.2 12.5
v 0.6 5.2 12.5
v 0.4 5.2 12.4
v 0.5 5.2 12.4
v 0.6 5.2 12.4
v 0.7 5.2 12.4
v 0.4 5.2 12.3
v 0.5 5.2 12.3
v 0.6 5.2 12.3
v 0.7 5.2 12.3
v 0.5 5.2 12.2
v 0.6 5.2 12.2

# faces
f 3/2/1 2/2/1 1/2/1
f 4/2/1 2/2/1 3/2/1
f 5/3/1 4/3/1 3/3/1
f 6/3/1 4/3/1 5/3/1
f 7/1/1 6/1/1 5/1/1
f 8/1/1 6/1/1 7/1/1
f 11/2/1 10/2/1 9/2/1
f 12/2/1 10/2/1 11/2/1
f 14/2/1 13/2/1 12/2/1
f 15/2/1 13/2/1 14/2/1
f 16/3/1 15/3/1 14/3/1
f 17/3/1 15/3/1 16/3/1
f 20/1/1 17/1/1 16/1/1
f 22/1/1 19/1/1 18/1/1
f 23/1/1 19/1/1 22/1/1
f 24/1/1 20/1/1 16/1/1
f 24/1/1 21/1/1 20/1/1
f 25/1/1 21/1/1 24/1/1
f 26/3/1 24/3/1 23/3/1
f 27/3/1 24/3/1 26/3/1
f 30/2/1 29/2/1 28/2/1
f 31/2/1 30/2/1 28/2/1
f 32/2/1 30/2/1 31/2/1
f 37/2/1 34/2/1 33/2/1
f 38/2/1 34/2/1 37/2/1
f 39/3/1 36/3/1 35/3/1
f 40/3/1 36/3/1 39/3/1
f 41/3/1 38/3/1 37/3/1
f 42/3/1 38/3/1 41/3/1
f 43/1/1 40/1/1 39/1/1
f 44/1/1 40/1/1 43/1/1
f 45/1/1 42/1/1 41/1/1
f 46/1/1 42/1/1 45/1/1
f 47/1/1 43/1/1 39/1/1
f 48/1/1 43/1/1 47/1/1
f 52/3/1 49/3/1 48/3/1
f 53/3/1 49/3/1 52/3/1
f 54/3/1 51/3/1 50/3/1
f 55/3/1 51/3/1 54/3/1
f 56/2/2 57/2/2 58/2/2
f 56/2/2 58/2/2 60/2/2
f 58/2/2 59/2/2 60/2/2
f 60/2/2 59/2/2 61/2/2
f 61/2/2 59/2/2 62/2/2
f 62/2/2 63/2/2 66/2/2
f 66/2/2 63/2/2 67/2/2
f 64/3/2 65/3/2 68/3/2
f 68/3/2 65/3/2 69/3/2
f 66/3/2 67/3/2 70/3/2
f 70/3/2 67/3/2 71/3/2
f 68/1/2 69/1/2 72/1/2
f 72/1/2 69/1/2 73/1/2
f 70/1/2 71/1/2 74/1/2
f 74/1/2 71/1/2 75/1/2
f 75/1/2 71/1/2 76/1/2
f 76/1/2 71/1/2 77/1/2
f 68/1/2 72/1/2 78/1/2
f 78/1/2 72/1/2 79/1/2
f 79/3/2 80/3/2 83/3/2
f 83/3/2 80/3/2 84/3/2
f 81/3/2 82/3/2 85/3/2
f 85/3/2 82/3/2 86/3/2
f 87/1/2 88/1/2 91/1/2
f 91/1/2 88/1/2 92/1/2
f 89/1/2 90/1/2 94/1/2
f 94/1/2 90/1/2 95/1/2
f 92/3/2 93/3/2 96/3/2
f 96/3/2 93/3/2 97/3/2
f 98/2/2 99/2/2 100/2/2
f 100/2/2 99/2/2 101/2/2
f 100/3/2 101/3/2 102/3/2
f 102/3/2 101/3/2 103/3/2
f 102/1/2 103/1/2 104/1/2
f 102/1/2 104/1/2 106/1/2
f 104/1/2 105/1/2 106/1/2
f 106/1/2 105/1/2 107/1/2
f 111/3/3 109/3/3 108/3/3
f 112/1/3 110/1/3 109/1/3
f 112/3/3 109/3/3 111/3/3
f 113/1/3 110/1/3 112/1/3
f 118/1/3 115/1/3 114/1/3
f 119/1/3 115/1/3 118/1/3
f 121/2/3 117/2/3 116/2/3
f 122/2/3 117/2/3 121/2/3
f 124/3/3 120/3/3 119/3/3
f 125/3/3 120/3/3 124/3/3
f 126/1/3 124/1/3 123/1/3
f 127/1/3 124/1/3 126/1/3
f 133/2/3 129/2/3 128/2/3
f 134/1/3 131/1/3 130/1/3
f 135/1/3 131/1/3 134/1/3
f 137/2/3 133/2/3 132/2/3
f 138/2/3 129/2/3 133/2/3
f 138/2/3 133/2/3 137/2/3
f 139/3/3 130/3/3 129/3/3
f 139/2/3 129/2/3 138/2/3
f 140/1/3 134/1/3 130/1/3
f 140/3/3 130/3/3 139/3/3
f 141/1/3 134/1/3 140/1/3
f 142/3/3 136/3/3 135/3/3
f 143/3/3 136/3/3 142/3/3
f 144/2/3 139/2/3 138/2/3
f 145/2/3 139/2/3 144/2/3
f 150/1/3 147/1/3 146/1/3
f 151/3/3 149/3/3 148/3/3
f 152/3/3 149/3/3 151/3/3
f 153/2/3 145/2/3 144/2/3
f 154/3/3 146/3/3 145/3/3
f 154/2/3 145/2/3 153/2/3
f 155/1/3 150/1/3 146/1/3
f 155/3/3 146/3/3 154/3/3
f 155/1/3 151/1/3 150/1/3
f 156/1/3 151/1/3 155/1/3
f 157/2/4 158/2/4 159/2/4
f 159/2/4 158/2/4 160/2/4
f 161/2/4 162/2/4 166/2/4
f 162/3/4 163/3/4 167/3/4
f 166/2/4 162/2/4 167/2/4
f 163/1/4 164/1/4 168/1/4
f 167/3/4 163/3/4 168/3/4
f 168/1/4 164/1/4 169/1/4
f 169/3/4 170/3/4 171/3/4
f 171/3/4 170/3/4 172/3/4
f 165/2/4 166/2/4 173/2/4
f 173/2/4 166/2/4 174/2/4
f 178/3/4 179/3/4 180/3/4
f 180/3/4 179/3/4 181/3/4
f 174/2/4 175/2/4 182/2/4
f 175/3/4 176/3/4 183/3/4
f 182/2/4 175/2/4 183/2/4
f 176/1/4 177/1/4 184/1/4
f 183/3/4 176/3/4 184/3/4
f 184/1/4 177/1/4 185/1/4
f 186/2/4 187/2/4 190/2/4
f 187/3/4 188/3/4 191/3/4
f 190/2/4 187/2/4 191/2/4
f 188/1/4 189/1/4 192/1/4
f 191/3/4 188/3/4 192/3/4
f 192/1/4 189/1/4 193/1/4
f 194/3/4 195/3/4 198/3/4
f 198/3/4 195/3/4 199/3/4
f 196/1/4 197/1/4 200/1/4
f 196/1/4 200/1/4 202/1/4
f 200/1/4 201/1/4 202/1/4
f 202/1/4 201/1/4 203/1/4
f 204/1/4 205/1/4 209/1/4
f 206/2/4 207/2/4 210/2/4
f 207/3/4 208/3/4 211/3/4
f 210/2/4 207/2/4 211/2/4
f 208/1/4 209/1/4 212/1/4
f 211/3/4 208/3/4 212/3/4
f 209/1/4 205/1/4 213/1/4
f 212/1/4 209/1/4 213/1/4
f 213/1/4 205/1/4 214/1/4
f 214/1/4 205/1/4 215/1/4
f 218/2/5 217/2/5 216/2/5
f 219/2/5 217/2/5 218/2/5
f 223/2/5 221/2/5 220/2/5
f 223/2/5 222/2/5 221/2/5
f 224/2/5 222/2/5 223/2/5
f 229/2/5 226/2/5 225/2/5
f 230/2/5 226/2/5 229/2/5
f 231/2/5 228/2/5 227/2/5
f 232/2/5 228/2/5 231/2/5
f 233/2/5 231/2/5 230/2/5
f 234/2/5 231/2/5 233/2/5
f 235/2/5 231/2/5 234/2/5
f 236/2/5 231/2/5 235/2/5
f 239/3/5 238/3/5 237/3/5
f 240/3/5 238/3/5 239/3/5
f 243/1/5 242/1/5 241/1/5
f 244/1/5 242/1/5 243/1/5
f 247/1/5 246/1/5 245/1/5
f 248/1/5 246/1/5 247/1/5
f 251/1/5 250/1/5 249/1/5
f 252/1/5 250/1/5 251/1/5
f 257/1/5 254/1/5 253/1/5
f 258/1/5 254/1/5 257/1/5
f 259/1/5 256/1/5 255/1/5
f 260/1/5 256/1/5 259/1/5
f 261/2/6 262/2/6 263/2/6
f 263/2/6 262/2/6 264/2/6
f 265/1/6 266/1/6 268/1/6
f 268/1/6 266/1/6 269/1/6
f 267/1/6 268/1/6 272/1/6
f 272/1/6 268/1/6 273/1/6
f 269/1/6 270/1/6 274/1/6
f 274/1/6 270/1/6 275/1/6
f 271/1/6 272/1/6 277/1/6
f 277/1/6 272/1/6 278/1/6
f 275/1/6 276/1/6 281/1/6
f 278/1/6 279/1/6 282/1/6
f 280/1/6 281/1/6 283/1/6
f 281/1/6 276/1/6 284/1/6
f 283/1/6 281/1/6 284/1/6
f 284/1/6 276/1/6 285/1/6
f 278/1/6 282/1/6 286/1/6
f 282/1/6 283/1/6 286/1/6
f 283/1/6 284/1/6 286/1/6
f 286/1/6 284/1/6 287/1/6
f 288/3/6 289/3/6 291/3/6
f 291/3/6 289/3/6 292/3/6
f 290/3/6 291/3/6 294/3/6
f 291/1/6 292/1/6 295/1/6
f 294/3/6 291/3/6 295/3/6
f 292/3/6 293/3/6 296/3/6
f 295/1/6 292/1/6 296/1/6
f 296/3/6 293/3/6 297/3/6
f 295/3/6 296/3/6 298/3/6
f 298/3/6 296/3/6 299/3/6
