# MagicaVoxel @ Ephtracy

# group
o 

# material
mtllib dune-5.mtl
usemtl palette

# normals
vn -1 0 0
vn 1 0 0
vn 0 0 1
vn 0 0 -1
vn 0 -1 0
vn 0 1 0

# texcoords
vt 0.185547 0.5
vt 0.216797 0.5

# verts
v 3 2 -7.3
v 3 2 -8.3
v 3 2.4 -7.3
v 3 2.4 -8.3
v 3 2.7 -7.3
v 3 2.7 -8.3
v 3 2.9 -7.3
v 3 2.9 -8.3
v 3 3 -7.3
v 3 3 -8.3
v 3.1 2 -4.4
v 3.1 2 -5.5
v 3.1 2 -6.7
v 3.1 2 -7.3
v 3.1 2.4 -4.4
v 3.1 2.4 -5.5
v 3.1 2.4 -6.7
v 3.1 2.4 -7.3
v 3.1 2.4 -7.5
v 3.1 2.4 -8.3
v 3.1 2.7 -4.4
v 3.1 2.7 -5.5
v 3.1 2.7 -6.7
v 3.1 2.7 -7.3
v 3.1 2.7 -7.5
v 3.1 2.7 -8.3
v 3.1 2.9 -4.4
v 3.1 2.9 -5.5
v 3.1 2.9 -6.7
v 3.1 2.9 -7.3
v 3.1 3 -4.4
v 3.1 3 -5.5
v 3.1 3 -6.7
v 3.1 3 -7.3
v 3.2 2 -8.3
v 3.2 2 -8.4
v 3.2 2.4 -4.5
v 3.2 2.4 -5.5
v 3.2 2.4 -5.7
v 3.2 2.4 -6.8
v 3.2 2.4 -7.5
v 3.2 2.4 -8.3
v 3.2 2.4 -8.4
v 3.2 2.7 -4.5
v 3.2 2.7 -5.5
v 3.2 2.7 -5.7
v 3.2 2.7 -6.8
v 3.2 2.7 -7.5
v 3.2 2.7 -8.3
v 3.2 2.7 -8.4
v 3.2 2.9 -8.3
v 3.2 2.9 -8.4
v 3.2 3 -8.3
v 3.2 3 -8.4
v 3.4 2 -3.9
v 3.4 2 -4.4
v 3.4 2 -5.5
v 3.4 2 -6.7
v 3.4 2.4 -3.9
v 3.4 2.4 -4.4
v 3.4 2.4 -5.5
v 3.4 2.4 -5.7
v 3.4 2.4 -6.7
v 3.4 2.7 -3.9
v 3.4 2.7 -4.4
v 3.4 2.7 -5.5
v 3.4 2.7 -5.7
v 3.4 2.7 -6.7
v 3.4 2.9 -3.9
v 3.4 2.9 -4.4
v 3.4 2.9 -5.5
v 3.4 2.9 -6.7
v 3.4 3 -3.9
v 3.4 3 -4.4
v 3.4 3 -5.5
v 3.4 3 -6.7
v 3.5 2 -8.4
v 3.5 2 -9.2
v 3.5 2.4 -4
v 3.5 2.4 -4.5
v 3.5 2.4 -5.7
v 3.5 2.4 -6.8
v 3.5 2.4 -8.3
v 3.5 2.4 -8.4
v 3.5 2.4 -8.5
v 3.5 2.4 -9.2
v 3.5 2.7 -4
v 3.5 2.7 -4.5
v 3.5 2.7 -5.7
v 3.5 2.7 -6.8
v 3.5 2.7 -8.3
v 3.5 2.7 -8.4
v 3.5 2.7 -8.5
v 3.5 2.7 -9.2
v 3.5 2.9 -8.4
v 3.5 2.9 -9.2
v 3.5 3 -8.4
v 3.5 3 -9.2
v 3.6 2.4 -8.5
v 3.6 2.4 -8.8
v 3.6 2.7 -8.5
v 3.6 2.7 -8.8
v 5.4 2 -3.8
v 5.4 2 -3.9
v 5.4 2.4 -3.8
v 5.4 2.4 -3.9
v 5.4 2.7 -3.8
v 5.4 2.7 -3.9
v 5.4 2.9 -3.8
v 5.4 2.9 -3.9
v 5.4 3 -3.8
v 5.4 3 -3.9
v 5.6 2.4 -3.9
v 5.6 2.4 -4
v 5.6 2.7 -3.9
v 5.6 2.7 -4
v 5.9 2 -3.3
v 5.9 2 -3.8
v 5.9 2.4 -3.3
v 5.9 2.4 -3.8
v 5.9 2.7 -3.3
v 5.9 2.7 -3.8
v 5.9 2.9 -3.3
v 5.9 2.9 -3.8
v 5.9 3 -3.3
v 5.9 3 -3.8
v 6 2.4 -3.4
v 6 2.4 -3.9
v 6 2.7 -3.4
v 6 2.7 -3.9
v 6.2 2.4 -8.7
v 6.2 2.4 -8.8
v 6.2 2.4 -8.9
v 6.2 2.7 -8.7
v 6.2 2.7 -8.8
v 6.2 2.7 -8.9
v 4.6 2.4 -8.7
v 4.6 2.4 -8.8
v 4.6 2.7 -8.7
v 4.6 2.7 -8.8
v 5.3 2 -8.8
v 5.3 2 -9.2
v 5.3 2.4 -8.8
v 5.3 2.4 -9.2
v 5.3 2.7 -8.8
v 5.3 2.7 -9.2
v 5.3 2.9 -8.8
v 5.3 2.9 -9.2
v 5.3 3 -8.8
v 5.3 3 -9.2
v 7.1 2 -8.3
v 7.1 2 -8.8
v 7.1 2.4 -8.3
v 7.1 2.4 -8.8
v 7.1 2.7 -8.3
v 7.1 2.7 -8.8
v 7.1 2.9 -8.3
v 7.1 2.9 -8.8
v 7.1 3 -8.3
v 7.1 3 -8.8
v 7.3 2.4 -8.4
v 7.3 2.4 -8.9
v 7.3 2.7 -8.4
v 7.3 2.7 -8.9
v 7.5 2 -3.3
v 7.5 2 -4
v 7.5 2.4 -3.3
v 7.5 2.4 -3.4
v 7.5 2.4 -4
v 7.5 2.7 -3.3
v 7.5 2.7 -3.4
v 7.5 2.7 -4
v 7.5 2.9 -3.3
v 7.5 2.9 -4
v 7.5 3 -3.3
v 7.5 3 -4
v 7.6 2.4 -3.4
v 7.6 2.4 -4
v 7.6 2.4 -4.1
v 7.6 2.7 -3.4
v 7.6 2.7 -4
v 7.6 2.7 -4.1
v 8.4 2 -7.3
v 8.4 2 -8.3
v 8.4 2.4 -7.3
v 8.4 2.4 -8.3
v 8.4 2.7 -7.3
v 8.4 2.7 -8.3
v 8.4 2.9 -7.3
v 8.4 2.9 -8.3
v 8.4 3 -7.3
v 8.4 3 -8.3
v 8.6 2.4 -7.5
v 8.6 2.4 -8.4
v 8.6 2.7 -7.5
v 8.6 2.7 -8.4
v 8.7 2 -4
v 8.7 2 -4.6
v 8.7 2.4 -4
v 8.7 2.4 -4.1
v 8.7 2.4 -4.6
v 8.7 2.7 -4
v 8.7 2.7 -4.1
v 8.7 2.7 -4.6
v 8.7 2.9 -4
v 8.7 2.9 -4.6
v 8.7 3 -4
v 8.7 3 -4.6
v 8.8 2.4 -4.1
v 8.8 2.4 -4.6
v 8.8 2.4 -4.7
v 8.8 2.7 -4.1
v 8.8 2.7 -4.6
v 8.8 2.7 -4.7
v 9.1 2 -6
v 9.1 2 -7.3
v 9.1 2.4 -6
v 9.1 2.4 -7.3
v 9.1 2.7 -6
v 9.1 2.7 -7.3
v 9.1 2.9 -6
v 9.1 2.9 -7.3
v 9.1 3 -6
v 9.1 3 -7.3
v 9.2 2.4 -6.2
v 9.2 2.4 -7.5
v 9.2 2.7 -6.2
v 9.2 2.7 -7.5
v 9.3 2 -4.6
v 9.3 2 -6
v 9.3 2.4 -4.6
v 9.3 2.4 -4.7
v 9.3 2.4 -6
v 9.3 2.7 -4.6
v 9.3 2.7 -4.7
v 9.3 2.7 -6
v 9.3 2.9 -4.6
v 9.3 2.9 -6
v 9.3 3 -4.6
v 9.3 3 -6
v 9.5 2.4 -4.7
v 9.5 2.4 -6.2
v 9.5 2.7 -4.7
v 9.5 2.7 -6.2
v 5.9 2 -3.3
v 5.9 2.4 -3.3
v 5.9 2.7 -3.3
v 5.9 2.9 -3.3
v 5.9 3 -3.3
v 7.5 2 -3.3
v 7.5 2.4 -3.3
v 7.5 2.7 -3.3
v 7.5 2.9 -3.3
v 7.5 3 -3.3
v 6 2.4 -3.4
v 6 2.7 -3.4
v 7.5 2.4 -3.4
v 7.5 2.7 -3.4
v 7.6 2.4 -3.4
v 7.6 2.7 -3.4
v 5.4 2 -3.8
v 5.4 2.4 -3.8
v 5.4 2.7 -3.8
v 5.4 2.9 -3.8
v 5.4 3 -3.8
v 5.9 2 -3.8
v 5.9 2.4 -3.8
v 5.9 2.7 -3.8
v 5.9 2.9 -3.8
v 5.9 3 -3.8
v 3.4 2 -3.9
v 3.4 2.4 -3.9
v 3.4 2.7 -3.9
v 3.4 2.9 -3.9
v 3.4 3 -3.9
v 5.4 2 -3.9
v 5.4 2.4 -3.9
v 5.4 2.7 -3.9
v 5.4 2.9 -3.9
v 5.4 3 -3.9
v 5.6 2.4 -3.9
v 5.6 2.7 -3.9
v 6 2.4 -3.9
v 6 2.7 -3.9
v 3.5 2.4 -4
v 3.5 2.7 -4
v 5.6 2.4 -4
v 5.6 2.7 -4
v 7.5 2 -4
v 7.5 2.4 -4
v 7.5 2.7 -4
v 7.5 2.9 -4
v 7.5 3 -4
v 7.6 2.4 -4
v 7.6 2.7 -4
v 8.7 2 -4
v 8.7 2.4 -4
v 8.7 2.7 -4
v 8.7 2.9 -4
v 8.7 3 -4
v 7.6 2.4 -4.1
v 7.6 2.7 -4.1
v 8.7 2.4 -4.1
v 8.7 2.7 -4.1
v 8.8 2.4 -4.1
v 8.8 2.7 -4.1
v 3.1 2 -4.4
v 3.1 2.4 -4.4
v 3.1 2.7 -4.4
v 3.1 2.9 -4.4
v 3.1 3 -4.4
v 3.4 2 -4.4
v 3.4 2.4 -4.4
v 3.4 2.7 -4.4
v 3.4 2.9 -4.4
v 3.4 3 -4.4
v 3.2 2.4 -4.5
v 3.2 2.7 -4.5
v 3.5 2.4 -4.5
v 3.5 2.7 -4.5
v 8.7 2 -4.6
v 8.7 2.4 -4.6
v 8.7 2.7 -4.6
v 8.7 2.9 -4.6
v 8.7 3 -4.6
v 8.8 2.4 -4.6
v 8.8 2.7 -4.6
v 9.3 2 -4.6
v 9.3 2.4 -4.6
v 9.3 2.7 -4.6
v 9.3 2.9 -4.6
v 9.3 3 -4.6
v 8.8 2.4 -4.7
v 8.8 2.7 -4.7
v 9.3 2.4 -4.7
v 9.3 2.7 -4.7
v 9.5 2.4 -4.7
v 9.5 2.7 -4.7
v 3.1 2 -6.7
v 3.1 2.4 -6.7
v 3.1 2.7 -6.7
v 3.1 2.9 -6.7
v 3.1 3 -6.7
v 3.4 2 -6.7
v 3.4 2.4 -6.7
v 3.4 2.7 -6.7
v 3.4 2.9 -6.7
v 3.4 3 -6.7
v 3.2 2.4 -6.8
v 3.2 2.7 -6.8
v 3.5 2.4 -6.8
v 3.5 2.7 -6.8
v 3 2 -7.3
v 3 2.4 -7.3
v 3 2.7 -7.3
v 3 2.9 -7.3
v 3 3 -7.3
v 3.1 2 -7.3
v 3.1 2.4 -7.3
v 3.1 2.7 -7.3
v 3.1 2.9 -7.3
v 3.1 3 -7.3
v 3.1 2.4 -7.5
v 3.1 2.7 -7.5
v 3.2 2.4 -7.5
v 3.2 2.7 -7.5
v 3.1 2 -5.5
v 3.1 2.4 -5.5
v 3.1 2.7 -5.5
v 3.1 2.9 -5.5
v 3.1 3 -5.5
v 3.2 2.4 -5.5
v 3.2 2.7 -5.5
v 3.4 2 -5.5
v 3.4 2.4 -5.5
v 3.4 2.7 -5.5
v 3.4 2.9 -5.5
v 3.4 3 -5.5
v 3.2 2.4 -5.7
v 3.2 2.7 -5.7
v 3.4 2.4 -5.7
v 3.4 2.7 -5.7
v 3.5 2.4 -5.7
v 3.5 2.7 -5.7
v 9.1 2 -6
v 9.1 2.4 -6
v 9.1 2.7 -6
v 9.1 2.9 -6
v 9.1 3 -6
v 9.3 2 -6
v 9.3 2.4 -6
v 9.3 2.7 -6
v 9.3 2.9 -6
v 9.3 3 -6
v 9.2 2.4 -6.2
v 9.2 2.7 -6.2
v 9.5 2.4 -6.2
v 9.5 2.7 -6.2
v 8.4 2 -7.3
v 8.4 2.4 -7.3
v 8.4 2.7 -7.3
v 8.4 2.9 -7.3
v 8.4 3 -7.3
v 9.1 2 -7.3
v 9.1 2.4 -7.3
v 9.1 2.7 -7.3
v 9.1 2.9 -7.3
v 9.1 3 -7.3
v 8.6 2.4 -7.5
v 8.6 2.7 -7.5
v 9.2 2.4 -7.5
v 9.2 2.7 -7.5
v 3 2 -8.3
v 3 2.4 -8.3
v 3 2.7 -8.3
v 3 2.9 -8.3
v 3 3 -8.3
v 3.1 2.4 -8.3
v 3.1 2.7 -8.3
v 3.2 2 -8.3
v 3.2 2.4 -8.3
v 3.2 2.7 -8.3
v 3.2 2.9 -8.3
v 3.2 3 -8.3
v 3.5 2.4 -8.3
v 3.5 2.7 -8.3
v 7.1 2 -8.3
v 7.1 2.4 -8.3
v 7.1 2.7 -8.3
v 7.1 2.9 -8.3
v 7.1 3 -8.3
v 8.4 2 -8.3
v 8.4 2.4 -8.3
v 8.4 2.7 -8.3
v 8.4 2.9 -8.3
v 8.4 3 -8.3
v 3.2 2 -8.4
v 3.2 2.4 -8.4
v 3.2 2.7 -8.4
v 3.2 2.9 -8.4
v 3.2 3 -8.4
v 3.5 2 -8.4
v 3.5 2.4 -8.4
v 3.5 2.7 -8.4
v 3.5 2.9 -8.4
v 3.5 3 -8.4
v 7.3 2.4 -8.4
v 7.3 2.7 -8.4
v 8.6 2.4 -8.4
v 8.6 2.7 -8.4
v 3.5 2.4 -8.5
v 3.5 2.7 -8.5
v 3.6 2.4 -8.5
v 3.6 2.7 -8.5
v 4.6 2.4 -8.7
v 4.6 2.7 -8.7
v 6.2 2.4 -8.7
v 6.2 2.7 -8.7
v 3.6 2.4 -8.8
v 3.6 2.7 -8.8
v 4.6 2.4 -8.8
v 4.6 2.7 -8.8
v 5.3 2 -8.8
v 5.3 2.4 -8.8
v 5.3 2.7 -8.8
v 5.3 2.9 -8.8
v 5.3 3 -8.8
v 6.2 2.4 -8.8
v 6.2 2.7 -8.8
v 7.1 2 -8.8
v 7.1 2.4 -8.8
v 7.1 2.7 -8.8
v 7.1 2.9 -8.8
v 7.1 3 -8.8
v 6.2 2.4 -8.9
v 6.2 2.7 -8.9
v 7.3 2.4 -8.9
v 7.3 2.7 -8.9
v 3.5 2 -9.2
v 3.5 2.4 -9.2
v 3.5 2.7 -9.2
v 3.5 2.9 -9.2
v 3.5 3 -9.2
v 5.3 2 -9.2
v 5.3 2.4 -9.2
v 5.3 2.7 -9.2
v 5.3 2.9 -9.2
v 5.3 3 -9.2
v 5.9 2 -3.3
v 7.5 2 -3.3
v 5.4 2 -3.8
v 5.9 2 -3.8
v 3.4 2 -3.9
v 5.4 2 -3.9
v 7.5 2 -4
v 8.7 2 -4
v 3.1 2 -4.4
v 3.4 2 -4.4
v 8.7 2 -4.6
v 9.3 2 -4.6
v 3.1 2 -5.5
v 3.4 2 -5.5
v 9.1 2 -6
v 9.3 2 -6
v 3.1 2 -6.7
v 3.4 2 -6.7
v 3 2 -7.3
v 3.1 2 -7.3
v 8.4 2 -7.3
v 9.1 2 -7.3
v 3 2 -8.3
v 3.2 2 -8.3
v 7.1 2 -8.3
v 8.4 2 -8.3
v 3.2 2 -8.4
v 3.5 2 -8.4
v 5.3 2 -8.8
v 7.1 2 -8.8
v 3.5 2 -9.2
v 5.3 2 -9.2
v 7.5 2.4 -3.4
v 7.6 2.4 -3.4
v 7.5 2.4 -4
v 7.6 2.4 -4
v 8.7 2.4 -4.1
v 8.8 2.4 -4.1
v 8.7 2.4 -4.6
v 8.8 2.4 -4.6
v 9.3 2.4 -4.7
v 9.5 2.4 -4.7
v 3.2 2.4 -5.5
v 3.4 2.4 -5.5
v 3.2 2.4 -5.7
v 3.4 2.4 -5.7
v 9.1 2.4 -6
v 9.3 2.4 -6
v 9.2 2.4 -6.2
v 9.5 2.4 -6.2
v 8.4 2.4 -7.3
v 9.1 2.4 -7.3
v 8.6 2.4 -7.5
v 9.2 2.4 -7.5
v 7.1 2.4 -8.3
v 8.4 2.4 -8.3
v 7.3 2.4 -8.4
v 8.6 2.4 -8.4
v 6.2 2.4 -8.8
v 7.1 2.4 -8.8
v 6.2 2.4 -8.9
v 7.3 2.4 -8.9
v 5.9 2.7 -3.3
v 7.5 2.7 -3.3
v 6 2.7 -3.4
v 7.5 2.7 -3.4
v 5.4 2.7 -3.8
v 5.9 2.7 -3.8
v 3.4 2.7 -3.9
v 5.4 2.7 -3.9
v 5.6 2.7 -3.9
v 6 2.7 -3.9
v 3.5 2.7 -4
v 5.6 2.7 -4
v 7.6 2.7 -4
v 8.7 2.7 -4
v 7.6 2.7 -4.1
v 8.7 2.7 -4.1
v 3.1 2.7 -4.4
v 3.4 2.7 -4.4
v 3.2 2.7 -4.5
v 3.5 2.7 -4.5
v 8.8 2.7 -4.6
v 9.3 2.7 -4.6
v 8.8 2.7 -4.7
v 9.3 2.7 -4.7
v 3.1 2.7 -5.5
v 3.2 2.7 -5.5
v 3.4 2.7 -5.7
v 3.5 2.7 -5.7
v 3.1 2.7 -6.7
v 3.4 2.7 -6.7
v 3.2 2.7 -6.8
v 3.5 2.7 -6.8
v 3 2.7 -7.3
v 3.1 2.7 -7.3
v 3.1 2.7 -7.5
v 3.2 2.7 -7.5
v 3 2.7 -8.3
v 3.1 2.7 -8.3
v 3.2 2.7 -8.3
v 3.5 2.7 -8.3
v 3.2 2.7 -8.4
v 3.5 2.7 -8.4
v 3.5 2.7 -8.5
v 3.6 2.7 -8.5
v 4.6 2.7 -8.7
v 6.2 2.7 -8.7
v 3.6 2.7 -8.8
v 4.6 2.7 -8.8
v 5.3 2.7 -8.8
v 6.2 2.7 -8.8
v 3.5 2.7 -9.2
v 5.3 2.7 -9.2
v 5.9 2.4 -3.3
v 7.5 2.4 -3.3
v 6 2.4 -3.4
v 7.5 2.4 -3.4
v 5.4 2.4 -3.8
v 5.9 2.4 -3.8
v 3.4 2.4 -3.9
v 5.4 2.4 -3.9
v 5.6 2.4 -3.9
v 6 2.4 -3.9
v 3.5 2.4 -4
v 5.6 2.4 -4
v 7.6 2.4 -4
v 8.7 2.4 -4
v 7.6 2.4 -4.1
v 8.7 2.4 -4.1
v 3.1 2.4 -4.4
v 3.4 2.4 -4.4
v 3.2 2.4 -4.5
v 3.5 2.4 -4.5
v 8.8 2.4 -4.6
v 9.3 2.4 -4.6
v 8.8 2.4 -4.7
v 9.3 2.4 -4.7
v 3.1 2.4 -5.5
v 3.2 2.4 -5.5
v 3.4 2.4 -5.7
v 3.5 2.4 -5.7
v 3.1 2.4 -6.7
v 3.4 2.4 -6.7
v 3.2 2.4 -6.8
v 3.5 2.4 -6.8
v 3 2.4 -7.3
v 3.1 2.4 -7.3
v 3.1 2.4 -7.5
v 3.2 2.4 -7.5
v 3 2.4 -8.3
v 3.1 2.4 -8.3
v 3.2 2.4 -8.3
v 3.5 2.4 -8.3
v 3.2 2.4 -8.4
v 3.5 2.4 -8.4
v 3.5 2.4 -8.5
v 3.6 2.4 -8.5
v 4.6 2.4 -8.7
v 6.2 2.4 -8.7
v 3.6 2.4 -8.8
v 4.6 2.4 -8.8
v 5.3 2.4 -8.8
v 6.2 2.4 -8.8
v 3.5 2.4 -9.2
v 5.3 2.4 -9.2
v 7.5 2.7 -3.4
v 7.6 2.7 -3.4
v 7.5 2.7 -4
v 7.6 2.7 -4
v 8.7 2.7 -4.1
v 8.8 2.7 -4.1
v 8.7 2.7 -4.6
v 8.8 2.7 -4.6
v 9.3 2.7 -4.7
v 9.5 2.7 -4.7
v 3.2 2.7 -5.5
v 3.4 2.7 -5.5
v 3.2 2.7 -5.7
v 3.4 2.7 -5.7
v 9.1 2.7 -6
v 9.3 2.7 -6
v 9.2 2.7 -6.2
v 9.5 2.7 -6.2
v 8.4 2.7 -7.3
v 9.1 2.7 -7.3
v 8.6 2.7 -7.5
v 9.2 2.7 -7.5
v 7.1 2.7 -8.3
v 8.4 2.7 -8.3
v 7.3 2.7 -8.4
v 8.6 2.7 -8.4
v 6.2 2.7 -8.8
v 7.1 2.7 -8.8
v 6.2 2.7 -8.9
v 7.3 2.7 -8.9
v 5.9 3 -3.3
v 7.5 3 -3.3
v 5.4 3 -3.8
v 5.9 3 -3.8
v 3.4 3 -3.9
v 5.4 3 -3.9
v 7.5 3 -4
v 8.7 3 -4
v 3.1 3 -4.4
v 3.4 3 -4.4
v 8.7 3 -4.6
v 9.3 3 -4.6
v 3.1 3 -5.5
v 3.4 3 -5.5
v 9.1 3 -6
v 9.3 3 -6
v 3.1 3 -6.7
v 3.4 3 -6.7
v 3 3 -7.3
v 3.1 3 -7.3
v 8.4 3 -7.3
v 9.1 3 -7.3
v 3 3 -8.3
v 3.2 3 -8.3
v 7.1 3 -8.3
v 8.4 3 -8.3
v 3.2 3 -8.4
v 3.5 3 -8.4
v 5.3 3 -8.8
v 7.1 3 -8.8
v 3.5 3 -9.2
v 5.3 3 -9.2

# faces
f 3/1/1 2/1/1 1/1/1
f 4/1/1 2/1/1 3/1/1
f 7/1/1 6/1/1 5/1/1
f 8/1/1 6/1/1 7/1/1
f 9/2/1 8/2/1 7/2/1
f 10/2/1 8/2/1 9/2/1
f 15/1/1 12/1/1 11/1/1
f 16/1/1 12/1/1 15/1/1
f 17/1/1 14/1/1 13/1/1
f 18/1/1 14/1/1 17/1/1
f 25/1/1 20/1/1 19/1/1
f 26/1/1 20/1/1 25/1/1
f 27/1/1 22/1/1 21/1/1
f 28/1/1 22/1/1 27/1/1
f 29/1/1 24/1/1 23/1/1
f 30/1/1 24/1/1 29/1/1
f 31/2/1 28/2/1 27/2/1
f 32/2/1 28/2/1 31/2/1
f 33/2/1 30/2/1 29/2/1
f 34/2/1 30/2/1 33/2/1
f 42/1/1 36/1/1 35/1/1
f 43/1/1 36/1/1 42/1/1
f 44/1/1 38/1/1 37/1/1
f 44/1/1 39/1/1 38/1/1
f 45/1/1 39/1/1 44/1/1
f 46/1/1 39/1/1 45/1/1
f 47/1/1 41/1/1 40/1/1
f 48/1/1 41/1/1 47/1/1
f 51/1/1 50/1/1 49/1/1
f 52/1/1 50/1/1 51/1/1
f 53/2/1 52/2/1 51/2/1
f 54/2/1 52/2/1 53/2/1
f 59/1/1 56/1/1 55/1/1
f 60/1/1 56/1/1 59/1/1
f 61/1/1 58/1/1 57/1/1
f 62/1/1 58/1/1 61/1/1
f 63/1/1 58/1/1 62/1/1
f 69/1/1 65/1/1 64/1/1
f 70/1/1 65/1/1 69/1/1
f 71/1/1 68/1/1 67/1/1
f 71/1/1 67/1/1 66/1/1
f 72/1/1 68/1/1 71/1/1
f 73/2/1 70/2/1 69/2/1
f 74/2/1 70/2/1 73/2/1
f 75/2/1 72/2/1 71/2/1
f 76/2/1 72/2/1 75/2/1
f 84/1/1 78/1/1 77/1/1
f 85/1/1 78/1/1 84/1/1
f 86/1/1 78/1/1 85/1/1
f 87/1/1 80/1/1 79/1/1
f 88/1/1 80/1/1 87/1/1
f 89/1/1 82/1/1 81/1/1
f 90/1/1 82/1/1 89/1/1
f 91/1/1 84/1/1 83/1/1
f 91/1/1 85/1/1 84/1/1
f 92/1/1 85/1/1 91/1/1
f 93/1/1 85/1/1 92/1/1
f 95/1/1 94/1/1 93/1/1
f 95/1/1 93/1/1 92/1/1
f 96/1/1 94/1/1 95/1/1
f 97/2/1 96/2/1 95/2/1
f 98/2/1 96/2/1 97/2/1
f 101/1/1 100/1/1 99/1/1
f 102/1/1 100/1/1 101/1/1
f 105/1/1 104/1/1 103/1/1
f 106/1/1 104/1/1 105/1/1
f 109/1/1 108/1/1 107/1/1
f 110/1/1 108/1/1 109/1/1
f 111/2/1 110/2/1 109/2/1
f 112/2/1 110/2/1 111/2/1
f 115/1/1 114/1/1 113/1/1
f 116/1/1 114/1/1 115/1/1
f 119/1/1 118/1/1 117/1/1
f 120/1/1 118/1/1 119/1/1
f 123/1/1 122/1/1 121/1/1
f 124/1/1 122/1/1 123/1/1
f 125/2/1 124/2/1 123/2/1
f 126/2/1 124/2/1 125/2/1
f 129/1/1 128/1/1 127/1/1
f 130/1/1 128/1/1 129/1/1
f 134/1/1 132/1/1 131/1/1
f 134/1/1 133/1/1 132/1/1
f 135/1/1 133/1/1 134/1/1
f 136/1/1 133/1/1 135/1/1
f 137/1/2 138/1/2 139/1/2
f 139/1/2 138/1/2 140/1/2
f 141/1/2 142/1/2 143/1/2
f 143/1/2 142/1/2 144/1/2
f 145/1/2 146/1/2 147/1/2
f 147/1/2 146/1/2 148/1/2
f 147/2/2 148/2/2 149/2/2
f 149/2/2 148/2/2 150/2/2
f 151/1/2 152/1/2 153/1/2
f 153/1/2 152/1/2 154/1/2
f 155/1/2 156/1/2 157/1/2
f 157/1/2 156/1/2 158/1/2
f 157/2/2 158/2/2 159/2/2
f 159/2/2 158/2/2 160/2/2
f 161/1/2 162/1/2 163/1/2
f 163/1/2 162/1/2 164/1/2
f 165/1/2 166/1/2 167/1/2
f 167/1/2 166/1/2 168/1/2
f 168/1/2 166/1/2 169/1/2
f 170/1/2 171/1/2 173/1/2
f 171/1/2 172/1/2 173/1/2
f 173/1/2 172/1/2 174/1/2
f 173/2/2 174/2/2 175/2/2
f 175/2/2 174/2/2 176/2/2
f 177/1/2 178/1/2 180/1/2
f 178/1/2 179/1/2 180/1/2
f 180/1/2 179/1/2 181/1/2
f 181/1/2 179/1/2 182/1/2
f 183/1/2 184/1/2 185/1/2
f 185/1/2 184/1/2 186/1/2
f 187/1/2 188/1/2 189/1/2
f 189/1/2 188/1/2 190/1/2
f 189/2/2 190/2/2 191/2/2
f 191/2/2 190/2/2 192/2/2
f 193/1/2 194/1/2 195/1/2
f 195/1/2 194/1/2 196/1/2
f 197/1/2 198/1/2 199/1/2
f 199/1/2 198/1/2 200/1/2
f 200/1/2 198/1/2 201/1/2
f 202/1/2 203/1/2 205/1/2
f 203/1/2 204/1/2 205/1/2
f 205/1/2 204/1/2 206/1/2
f 205/2/2 206/2/2 207/2/2
f 207/2/2 206/2/2 208/2/2
f 209/1/2 210/1/2 212/1/2
f 210/1/2 211/1/2 212/1/2
f 212/1/2 211/1/2 213/1/2
f 213/1/2 211/1/2 214/1/2
f 215/1/2 216/1/2 217/1/2
f 217/1/2 216/1/2 218/1/2
f 219/1/2 220/1/2 221/1/2
f 221/1/2 220/1/2 222/1/2
f 221/2/2 222/2/2 223/2/2
f 223/2/2 222/2/2 224/2/2
f 225/1/2 226/1/2 227/1/2
f 227/1/2 226/1/2 228/1/2
f 229/1/2 230/1/2 231/1/2
f 231/1/2 230/1/2 232/1/2
f 232/1/2 230/1/2 233/1/2
f 234/1/2 235/1/2 237/1/2
f 235/1/2 236/1/2 237/1/2
f 237/1/2 236/1/2 238/1/2
f 237/2/2 238/2/2 239/2/2
f 239/2/2 238/2/2 240/2/2
f 241/1/2 242/1/2 243/1/2
f 243/1/2 242/1/2 244/1/2
f 250/1/3 246/1/3 245/1/3
f 251/1/3 246/1/3 250/1/3
f 252/1/3 248/1/3 247/1/3
f 253/2/3 249/2/3 248/2/3
f 253/1/3 248/1/3 252/1/3
f 254/2/3 249/2/3 253/2/3
f 257/1/3 256/1/3 255/1/3
f 258/1/3 256/1/3 257/1/3
f 259/1/3 258/1/3 257/1/3
f 260/1/3 258/1/3 259/1/3
f 266/1/3 262/1/3 261/1/3
f 267/1/3 262/1/3 266/1/3
f 268/1/3 264/1/3 263/1/3
f 269/2/3 265/2/3 264/2/3
f 269/1/3 264/1/3 268/1/3
f 270/2/3 265/2/3 269/2/3
f 276/1/3 272/1/3 271/1/3
f 277/1/3 272/1/3 276/1/3
f 278/1/3 274/1/3 273/1/3
f 279/2/3 275/2/3 274/2/3
f 279/1/3 274/1/3 278/1/3
f 280/2/3 275/2/3 279/2/3
f 283/1/3 282/1/3 281/1/3
f 284/1/3 282/1/3 283/1/3
f 287/1/3 286/1/3 285/1/3
f 288/1/3 286/1/3 287/1/3
f 294/1/3 290/1/3 289/1/3
f 295/1/3 292/1/3 291/1/3
f 296/1/3 294/1/3 289/1/3
f 297/1/3 294/1/3 296/1/3
f 298/1/3 292/1/3 295/1/3
f 299/2/3 293/2/3 292/2/3
f 299/1/3 292/1/3 298/1/3
f 300/2/3 293/2/3 299/2/3
f 303/1/3 302/1/3 301/1/3
f 304/1/3 302/1/3 303/1/3
f 305/1/3 304/1/3 303/1/3
f 306/1/3 304/1/3 305/1/3
f 312/1/3 308/1/3 307/1/3
f 313/1/3 308/1/3 312/1/3
f 314/1/3 310/1/3 309/1/3
f 315/2/3 311/2/3 310/2/3
f 315/1/3 310/1/3 314/1/3
f 316/2/3 311/2/3 315/2/3
f 319/1/3 318/1/3 317/1/3
f 320/1/3 318/1/3 319/1/3
f 326/1/3 322/1/3 321/1/3
f 327/1/3 324/1/3 323/1/3
f 328/1/3 326/1/3 321/1/3
f 329/1/3 326/1/3 328/1/3
f 330/1/3 324/1/3 327/1/3
f 331/2/3 325/2/3 324/2/3
f 331/1/3 324/1/3 330/1/3
f 332/2/3 325/2/3 331/2/3
f 335/1/3 334/1/3 333/1/3
f 336/1/3 334/1/3 335/1/3
f 337/1/3 336/1/3 335/1/3
f 338/1/3 336/1/3 337/1/3
f 344/1/3 340/1/3 339/1/3
f 345/1/3 340/1/3 344/1/3
f 346/1/3 342/1/3 341/1/3
f 347/2/3 343/2/3 342/2/3
f 347/1/3 342/1/3 346/1/3
f 348/2/3 343/2/3 347/2/3
f 351/1/3 350/1/3 349/1/3
f 352/1/3 350/1/3 351/1/3
f 358/1/3 354/1/3 353/1/3
f 359/1/3 354/1/3 358/1/3
f 360/1/3 356/1/3 355/1/3
f 361/2/3 357/2/3 356/2/3
f 361/1/3 356/1/3 360/1/3
f 362/2/3 357/2/3 361/2/3
f 365/1/3 364/1/3 363/1/3
f 366/1/3 364/1/3 365/1/3
f 367/1/4 368/1/4 372/1/4
f 369/1/4 370/1/4 373/1/4
f 367/1/4 372/1/4 374/1/4
f 374/1/4 372/1/4 375/1/4
f 373/1/4 370/1/4 376/1/4
f 370/2/4 371/2/4 377/2/4
f 376/1/4 370/1/4 377/1/4
f 377/2/4 371/2/4 378/2/4
f 379/1/4 380/1/4 381/1/4
f 381/1/4 380/1/4 382/1/4
f 381/1/4 382/1/4 383/1/4
f 383/1/4 382/1/4 384/1/4
f 385/1/4 386/1/4 390/1/4
f 390/1/4 386/1/4 391/1/4
f 387/1/4 388/1/4 392/1/4
f 388/2/4 389/2/4 393/2/4
f 392/1/4 388/1/4 393/1/4
f 393/2/4 389/2/4 394/2/4
f 395/1/4 396/1/4 397/1/4
f 397/1/4 396/1/4 398/1/4
f 399/1/4 400/1/4 404/1/4
f 404/1/4 400/1/4 405/1/4
f 401/1/4 402/1/4 406/1/4
f 402/2/4 403/2/4 407/2/4
f 406/1/4 402/1/4 407/1/4
f 407/2/4 403/2/4 408/2/4
f 409/1/4 410/1/4 411/1/4
f 411/1/4 410/1/4 412/1/4
f 413/1/4 414/1/4 418/1/4
f 415/1/4 416/1/4 419/1/4
f 413/1/4 418/1/4 420/1/4
f 418/1/4 419/1/4 420/1/4
f 420/1/4 419/1/4 421/1/4
f 419/1/4 416/1/4 422/1/4
f 421/1/4 419/1/4 422/1/4
f 416/2/4 417/2/4 423/2/4
f 422/1/4 416/1/4 423/1/4
f 423/2/4 417/2/4 424/2/4
f 421/1/4 422/1/4 425/1/4
f 425/1/4 422/1/4 426/1/4
f 427/1/4 428/1/4 432/1/4
f 432/1/4 428/1/4 433/1/4
f 429/1/4 430/1/4 434/1/4
f 430/2/4 431/2/4 435/2/4
f 434/1/4 430/1/4 435/1/4
f 435/2/4 431/2/4 436/2/4
f 437/1/4 438/1/4 442/1/4
f 442/1/4 438/1/4 443/1/4
f 439/1/4 440/1/4 444/1/4
f 440/2/4 441/2/4 445/2/4
f 444/1/4 440/1/4 445/1/4
f 445/2/4 441/2/4 446/2/4
f 447/1/4 448/1/4 449/1/4
f 449/1/4 448/1/4 450/1/4
f 451/1/4 452/1/4 453/1/4
f 453/1/4 452/1/4 454/1/4
f 455/1/4 456/1/4 457/1/4
f 457/1/4 456/1/4 458/1/4
f 459/1/4 460/1/4 461/1/4
f 461/1/4 460/1/4 462/1/4
f 463/1/4 464/1/4 468/1/4
f 465/1/4 466/1/4 469/1/4
f 463/1/4 468/1/4 470/1/4
f 470/1/4 468/1/4 471/1/4
f 469/1/4 466/1/4 472/1/4
f 466/2/4 467/2/4 473/2/4
f 472/1/4 466/1/4 473/1/4
f 473/2/4 467/2/4 474/2/4
f 475/1/4 476/1/4 477/1/4
f 477/1/4 476/1/4 478/1/4
f 479/1/4 480/1/4 484/1/4
f 484/1/4 480/1/4 485/1/4
f 481/1/4 482/1/4 486/1/4
f 482/2/4 483/2/4 487/2/4
f 486/1/4 482/1/4 487/1/4
f 487/2/4 483/2/4 488/2/4
f 492/1/5 490/1/5 489/1/5
f 494/1/5 492/1/5 491/1/5
f 495/1/5 490/1/5 492/1/5
f 495/1/5 494/1/5 493/1/5
f 495/1/5 492/1/5 494/1/5
f 498/1/5 495/1/5 493/1/5
f 498/1/5 496/1/5 495/1/5
f 499/1/5 496/1/5 498/1/5
f 499/1/5 498/1/5 497/1/5
f 501/1/5 499/1/5 497/1/5
f 501/1/5 500/1/5 499/1/5
f 502/1/5 500/1/5 501/1/5
f 503/1/5 500/1/5 502/1/5
f 504/1/5 500/1/5 503/1/5
f 506/1/5 503/1/5 502/1/5
f 508/1/5 506/1/5 505/1/5
f 509/1/5 503/1/5 506/1/5
f 509/1/5 506/1/5 508/1/5
f 510/1/5 503/1/5 509/1/5
f 511/1/5 508/1/5 507/1/5
f 511/1/5 509/1/5 508/1/5
f 512/1/5 509/1/5 511/1/5
f 513/1/5 509/1/5 512/1/5
f 514/1/5 509/1/5 513/1/5
f 515/1/5 513/1/5 512/1/5
f 516/1/5 513/1/5 515/1/5
f 517/1/5 513/1/5 516/1/5
f 518/1/5 513/1/5 517/1/5
f 519/1/5 517/1/5 516/1/5
f 520/1/5 517/1/5 519/1/5
f 523/1/5 522/1/5 521/1/5
f 524/1/5 522/1/5 523/1/5
f 527/1/5 526/1/5 525/1/5
f 528/1/5 526/1/5 527/1/5
f 533/1/5 532/1/5 531/1/5
f 534/1/5 532/1/5 533/1/5
f 536/1/5 530/1/5 529/1/5
f 537/1/5 536/1/5 535/1/5
f 538/1/5 530/1/5 536/1/5
f 538/1/5 536/1/5 537/1/5
f 540/1/5 537/1/5 535/1/5
f 541/1/5 540/1/5 539/1/5
f 542/1/5 537/1/5 540/1/5
f 542/1/5 540/1/5 541/1/5
f 544/1/5 541/1/5 539/1/5
f 545/1/5 544/1/5 543/1/5
f 546/1/5 541/1/5 544/1/5
f 546/1/5 544/1/5 545/1/5
f 548/1/5 545/1/5 543/1/5
f 549/1/5 548/1/5 547/1/5
f 550/1/5 545/1/5 548/1/5
f 550/1/5 548/1/5 549/1/5
f 553/1/5 552/1/5 551/1/5
f 554/1/5 552/1/5 553/1/5
f 556/1/5 553/1/5 551/1/5
f 558/1/5 556/1/5 555/1/5
f 559/1/5 556/1/5 558/1/5
f 560/1/5 553/1/5 556/1/5
f 560/1/5 556/1/5 559/1/5
f 561/1/5 559/1/5 558/1/5
f 561/1/5 558/1/5 557/1/5
f 562/1/5 559/1/5 561/1/5
f 565/1/5 564/1/5 563/1/5
f 566/1/5 564/1/5 565/1/5
f 568/1/5 561/1/5 557/1/5
f 569/1/5 568/1/5 567/1/5
f 570/1/5 561/1/5 568/1/5
f 570/1/5 568/1/5 569/1/5
f 573/1/5 572/1/5 571/1/5
f 574/1/5 572/1/5 573/1/5
f 575/1/5 569/1/5 567/1/5
f 576/1/5 569/1/5 575/1/5
f 580/1/5 578/1/5 577/1/5
f 581/1/5 580/1/5 579/1/5
f 582/1/5 578/1/5 580/1/5
f 582/1/5 580/1/5 581/1/5
f 584/1/5 581/1/5 579/1/5
f 585/1/5 581/1/5 584/1/5
f 585/1/5 584/1/5 583/1/5
f 586/1/5 581/1/5 585/1/5
f 587/1/5 585/1/5 583/1/5
f 588/1/5 585/1/5 587/1/5
f 591/1/5 590/1/5 589/1/5
f 592/1/5 590/1/5 591/1/5
f 597/1/5 594/1/5 593/1/5
f 598/1/5 596/1/5 595/1/5
f 599/1/5 596/1/5 598/1/5
f 600/1/5 596/1/5 599/1/5
f 601/1/5 597/1/5 593/1/5
f 601/1/5 598/1/5 597/1/5
f 601/1/5 599/1/5 598/1/5
f 602/1/5 599/1/5 601/1/5
f 603/1/6 604/1/6 605/1/6
f 605/1/6 604/1/6 606/1/6
f 603/1/6 605/1/6 608/1/6
f 607/1/6 608/1/6 610/1/6
f 610/1/6 608/1/6 611/1/6
f 608/1/6 605/1/6 612/1/6
f 611/1/6 608/1/6 612/1/6
f 610/1/6 611/1/6 613/1/6
f 609/1/6 610/1/6 613/1/6
f 613/1/6 611/1/6 614/1/6
f 615/1/6 616/1/6 617/1/6
f 617/1/6 616/1/6 618/1/6
f 609/1/6 613/1/6 620/1/6
f 619/1/6 620/1/6 621/1/6
f 620/1/6 613/1/6 622/1/6
f 621/1/6 620/1/6 622/1/6
f 623/1/6 624/1/6 625/1/6
f 625/1/6 624/1/6 626/1/6
f 619/1/6 621/1/6 627/1/6
f 627/1/6 621/1/6 628/1/6
f 629/1/6 630/1/6 632/1/6
f 631/1/6 632/1/6 633/1/6
f 632/1/6 630/1/6 634/1/6
f 633/1/6 632/1/6 634/1/6
f 631/1/6 633/1/6 636/1/6
f 636/1/6 633/1/6 637/1/6
f 635/1/6 636/1/6 637/1/6
f 637/1/6 633/1/6 638/1/6
f 635/1/6 637/1/6 639/1/6
f 639/1/6 637/1/6 640/1/6
f 641/1/6 642/1/6 643/1/6
f 643/1/6 642/1/6 644/1/6
f 645/1/6 646/1/6 649/1/6
f 647/1/6 648/1/6 650/1/6
f 650/1/6 648/1/6 651/1/6
f 651/1/6 648/1/6 652/1/6
f 645/1/6 649/1/6 653/1/6
f 649/1/6 650/1/6 653/1/6
f 650/1/6 651/1/6 653/1/6
f 653/1/6 651/1/6 654/1/6
f 655/1/6 656/1/6 657/1/6
f 657/1/6 656/1/6 658/1/6
f 659/1/6 660/1/6 661/1/6
f 661/1/6 660/1/6 662/1/6
f 665/1/6 666/1/6 667/1/6
f 667/1/6 666/1/6 668/1/6
f 663/1/6 664/1/6 670/1/6
f 669/1/6 670/1/6 671/1/6
f 670/1/6 664/1/6 672/1/6
f 671/1/6 670/1/6 672/1/6
f 669/1/6 671/1/6 674/1/6
f 673/1/6 674/1/6 675/1/6
f 674/1/6 671/1/6 676/1/6
f 675/1/6 674/1/6 676/1/6
f 673/1/6 675/1/6 678/1/6
f 677/1/6 678/1/6 679/1/6
f 678/1/6 675/1/6 680/1/6
f 679/1/6 678/1/6 680/1/6
f 677/1/6 679/1/6 682/1/6
f 681/1/6 682/1/6 683/1/6
f 682/1/6 679/1/6 684/1/6
f 683/1/6 682/1/6 684/1/6
f 685/2/6 686/2/6 688/2/6
f 687/2/6 688/2/6 690/2/6
f 688/2/6 686/2/6 691/2/6
f 689/2/6 690/2/6 691/2/6
f 690/2/6 688/2/6 691/2/6
f 689/2/6 691/2/6 694/2/6
f 691/2/6 692/2/6 694/2/6
f 694/2/6 692/2/6 695/2/6
f 693/2/6 694/2/6 695/2/6
f 693/2/6 695/2/6 697/2/6
f 695/2/6 696/2/6 697/2/6
f 697/2/6 696/2/6 698/2/6
f 698/2/6 696/2/6 699/2/6
f 699/2/6 696/2/6 700/2/6
f 698/2/6 699/2/6 702/2/6
f 701/2/6 702/2/6 704/2/6
f 702/2/6 699/2/6 705/2/6
f 704/2/6 702/2/6 705/2/6
f 705/2/6 699/2/6 706/2/6
f 703/2/6 704/2/6 707/2/6
f 704/2/6 705/2/6 707/2/6
f 707/2/6 705/2/6 708/2/6
f 708/2/6 705/2/6 709/2/6
f 709/2/6 705/2/6 710/2/6
f 708/2/6 709/2/6 711/2/6
f 711/2/6 709/2/6 712/2/6
f 712/2/6 709/2/6 713/2/6
f 713/2/6 709/2/6 714/2/6
f 712/2/6 713/2/6 715/2/6
f 715/2/6 713/2/6 716/2/6
