# MagicaVoxel @ Ephtracy

# group
o 

# material
mtllib __-0.mtl
usemtl palette

# normals
vn -1 0 0
vn 1 0 0
vn 0 0 1
vn 0 0 -1
vn 0 -1 0
vn 0 1 0

# texcoords
vt 0.634766 0.5
vt 0.955078 0.5

# verts
v 0.2 2.1 0.4
v 0.2 2.1 5.96046e-008
v 0.2 2.5 0.4
v 0.2 2.5 5.96046e-008
v 0.4 1.1 0.6
v 0.4 1.1 0.4
v 0.4 1.3 0.6
v 0.4 1.3 0.4
v 0.4 2.2 0.7
v 0.4 2.2 0.4
v 0.4 2.4 -0.2
v 0.4 2.4 -0.6
v 0.4 2.5 0.4
v 0.4 2.5 0.3
v 0.4 2.6 0.7
v 0.4 2.6 0.3
v 0.4 2.8 -0.2
v 0.4 2.8 -0.6
v 0.5 1.1 0.8
v 0.5 1.1 0.6
v 0.5 1.3 0.8
v 0.5 1.3 0.6
v 0.5 1.3 0.4
v 0.5 1.5 0.6
v 0.5 1.5 0.4
v 0.5 3 0.3
v 0.5 3 0.1
v 0.5 3.2 0.3
v 0.5 3.2 0.1
v 0.6 0 0.3
v 0.6 0 0.2
v 0.6 1.2 0.4
v 0.6 1.2 0.3
v 0.6 1.3 0.4
v 0.6 1.3 0.3
v 0.6 2.1 0.3
v 0.6 2.1 0.2
v 0.6 2.5 0.3
v 0.6 2.5 0.2
v 0.6 2.6 0.3
v 0.6 2.6 0.2
v 0.6 2.6 -0.2
v 0.6 2.7 0.2
v 0.6 2.7 -0.2
v 0.6 3 0.3
v 0.6 3 0.2
v 0.7 1.6 0.5
v 0.7 1.6 0.3
v 0.7 1.8 0.5
v 0.7 1.8 0.3
v 0.7 2.4 5.96046e-008
v 0.7 2.4 -0.2
v 0.7 2.6 5.96046e-008
v 0.7 2.6 -0.2
v 0.7 2.7 5.96046e-008
v 0.7 2.7 -0.2
v 0.7 2.8 5.96046e-008
v 0.7 2.8 -0.2
v 0.7 2.8 -0.4
v 0.7 3 -0.2
v 0.7 3 -0.4
v 0.9 1.5 0.4
v 0.9 1.5 5.96046e-008
v 0.9 1.6 0.4
v 0.9 1.6 0.3
v 0.9 1.7 0.3
v 0.9 1.7 0.2
v 0.9 1.8 0.4
v 0.9 1.8 0.3
v 0.9 1.8 0.2
v 0.9 1.9 0.4
v 0.9 1.9 5.96046e-008
v 0.6 1.1 0.6
v 0.6 1.1 0.4
v 0.6 1.2 0.6
v 0.6 1.2 0.4
v 0.6 2.1 0.4
v 0.6 2.1 0.3
v 0.6 2.1 0.2
v 0.6 2.1 5.96046e-008
v 0.6 2.2 0.4
v 0.6 2.2 0.3
v 0.6 2.5 0.2
v 0.6 2.5 5.96046e-008
v 0.7 0 0.3
v 0.7 0 0.2
v 0.7 1.1 0.8
v 0.7 1.1 0.6
v 0.7 1.2 0.6
v 0.7 1.2 0.4
v 0.7 1.2 0.3
v 0.7 1.3 0.8
v 0.7 1.3 0.6
v 0.7 1.3 0.4
v 0.7 1.3 0.3
v 0.7 1.4 0.6
v 0.7 1.4 0.4
v 0.7 1.5 0.6
v 0.7 1.5 0.4
v 0.7 1.6 0.3
v 0.7 1.7 0.3
v 0.7 1.7 0.2
v 0.7 1.8 0.3
v 0.7 1.8 0.2
v 0.7 2.2 0.3
v 0.7 2.6 0.3
v 0.7 2.6 0.2
v 0.7 2.6 5.96046e-008
v 0.7 2.7 0.2
v 0.7 2.7 5.96046e-008
v 0.7 3 0.3
v 0.7 3 0.2
v 0.7 3 0.1
v 0.7 3.2 0.3
v 0.7 3.2 0.1
v 0.8 2.2 0.7
v 0.8 2.2 0.3
v 0.8 2.4 -0.4
v 0.8 2.4 -0.6
v 0.8 2.6 0.7
v 0.8 2.6 0.3
v 0.8 2.8 -0.4
v 0.8 2.8 -0.6
v 0.9 1.2 0.6
v 0.9 1.2 0.4
v 0.9 1.4 0.6
v 0.9 1.4 0.4
v 0.9 1.6 0.5
v 0.9 1.6 0.4
v 0.9 1.8 0.5
v 0.9 1.8 0.4
v 0.9 2.8 -0.2
v 0.9 2.8 -0.4
v 0.9 3 -0.2
v 0.9 3 -0.4
v 1.1 2.4 5.96046e-008
v 1.1 2.4 -0.4
v 1.1 2.8 5.96046e-008
v 1.1 2.8 -0.4
v 1.3 1.5 0.4
v 1.3 1.5 5.96046e-008
v 1.3 1.9 0.4
v 1.3 1.9 5.96046e-008
v 0.5 1.1 0.8
v 0.5 1.3 0.8
v 0.7 1.1 0.8
v 0.7 1.3 0.8
v 0.4 2.2 0.7
v 0.4 2.6 0.7
v 0.8 2.2 0.7
v 0.8 2.6 0.7
v 0.4 1.1 0.6
v 0.4 1.3 0.6
v 0.5 1.1 0.6
v 0.5 1.3 0.6
v 0.5 1.5 0.6
v 0.7 1.2 0.6
v 0.7 1.3 0.6
v 0.7 1.4 0.6
v 0.7 1.5 0.6
v 0.9 1.2 0.6
v 0.9 1.4 0.6
v 0.7 1.6 0.5
v 0.7 1.8 0.5
v 0.9 1.6 0.5
v 0.9 1.8 0.5
v 0.2 2.1 0.4
v 0.2 2.5 0.4
v 0.4 2.2 0.4
v 0.4 2.5 0.4
v 0.6 2.1 0.4
v 0.6 2.2 0.4
v 0.9 1.5 0.4
v 0.9 1.6 0.4
v 0.9 1.8 0.4
v 0.9 1.9 0.4
v 1.3 1.5 0.4
v 1.3 1.9 0.4
v 0.5 3 0.3
v 0.5 3.2 0.3
v 0.6 0 0.3
v 0.6 1.2 0.3
v 0.6 1.3 0.3
v 0.6 2.1 0.3
v 0.6 2.2 0.3
v 0.6 2.6 0.3
v 0.6 3 0.3
v 0.7 0 0.3
v 0.7 1.2 0.3
v 0.7 1.3 0.3
v 0.7 1.6 0.3
v 0.7 1.8 0.3
v 0.7 2.2 0.3
v 0.7 2.6 0.3
v 0.7 3 0.3
v 0.7 3.2 0.3
v 0.7 2.4 5.96046e-008
v 0.7 2.6 5.96046e-008
v 0.7 2.7 5.96046e-008
v 0.7 2.8 5.96046e-008
v 1.1 2.4 5.96046e-008
v 1.1 2.8 5.96046e-008
v 0.4 2.4 -0.2
v 0.4 2.8 -0.2
v 0.6 2.6 -0.2
v 0.6 2.7 -0.2
v 0.7 2.4 -0.2
v 0.7 2.6 -0.2
v 0.7 2.7 -0.2
v 0.7 2.8 -0.2
v 0.7 3 -0.2
v 0.9 2.8 -0.2
v 0.9 3 -0.2
v 0.6 1.1 0.6
v 0.6 1.2 0.6
v 0.7 1.1 0.6
v 0.7 1.2 0.6
v 0.4 1.1 0.4
v 0.4 1.3 0.4
v 0.5 1.3 0.4
v 0.5 1.5 0.4
v 0.6 1.1 0.4
v 0.6 1.2 0.4
v 0.6 1.3 0.4
v 0.7 1.2 0.4
v 0.7 1.3 0.4
v 0.7 1.4 0.4
v 0.7 1.5 0.4
v 0.9 1.2 0.4
v 0.9 1.4 0.4
v 0.4 2.5 0.3
v 0.4 2.6 0.3
v 0.6 2.5 0.3
v 0.6 2.6 0.3
v 0.7 1.6 0.3
v 0.7 1.7 0.3
v 0.7 2.2 0.3
v 0.7 2.6 0.3
v 0.8 2.2 0.3
v 0.8 2.6 0.3
v 0.9 1.6 0.3
v 0.9 1.7 0.3
v 0.6 0 0.2
v 0.6 2.1 0.2
v 0.6 2.5 0.2
v 0.6 2.6 0.2
v 0.6 2.7 0.2
v 0.6 3 0.2
v 0.7 0 0.2
v 0.7 1.7 0.2
v 0.7 1.8 0.2
v 0.7 2.6 0.2
v 0.7 2.7 0.2
v 0.7 3 0.2
v 0.9 1.7 0.2
v 0.9 1.8 0.2
v 0.5 3 0.1
v 0.5 3.2 0.1
v 0.7 3 0.1
v 0.7 3.2 0.1
v 0.2 2.1 5.96046e-008
v 0.2 2.5 5.96046e-008
v 0.6 2.1 5.96046e-008
v 0.6 2.5 5.96046e-008
v 0.9 1.5 5.96046e-008
v 0.9 1.9 5.96046e-008
v 1.3 1.5 5.96046e-008
v 1.3 1.9 5.96046e-008
v 0.7 2.8 -0.4
v 0.7 3 -0.4
v 0.8 2.4 -0.4
v 0.8 2.8 -0.4
v 0.9 2.8 -0.4
v 0.9 3 -0.4
v 1.1 2.4 -0.4
v 1.1 2.8 -0.4
v 0.4 2.4 -0.6
v 0.4 2.8 -0.6
v 0.8 2.4 -0.6
v 0.8 2.8 -0.6
v 0.6 0 0.3
v 0.7 0 0.3
v 0.6 0 0.2
v 0.7 0 0.2
v 0.5 1.1 0.8
v 0.7 1.1 0.8
v 0.4 1.1 0.6
v 0.5 1.1 0.6
v 0.6 1.1 0.6
v 0.7 1.1 0.6
v 0.4 1.1 0.4
v 0.6 1.1 0.4
v 0.6 1.2 0.6
v 0.7 1.2 0.6
v 0.9 1.2 0.6
v 0.6 1.2 0.4
v 0.7 1.2 0.4
v 0.9 1.2 0.4
v 0.6 1.2 0.3
v 0.7 1.2 0.3
v 0.9 1.5 0.4
v 1.3 1.5 0.4
v 0.9 1.5 5.96046e-008
v 1.3 1.5 5.96046e-008
v 0.7 1.6 0.5
v 0.9 1.6 0.5
v 0.9 1.6 0.4
v 0.7 1.6 0.3
v 0.9 1.6 0.3
v 0.7 1.7 0.3
v 0.9 1.7 0.3
v 0.7 1.7 0.2
v 0.9 1.7 0.2
v 0.2 2.1 0.4
v 0.6 2.1 0.4
v 0.6 2.1 0.3
v 0.6 2.1 0.2
v 0.2 2.1 5.96046e-008
v 0.6 2.1 5.96046e-008
v 0.4 2.2 0.7
v 0.8 2.2 0.7
v 0.4 2.2 0.4
v 0.6 2.2 0.4
v 0.6 2.2 0.3
v 0.7 2.2 0.3
v 0.8 2.2 0.3
v 0.7 2.4 5.96046e-008
v 1.1 2.4 5.96046e-008
v 0.4 2.4 -0.2
v 0.7 2.4 -0.2
v 0.8 2.4 -0.4
v 1.1 2.4 -0.4
v 0.4 2.4 -0.6
v 0.8 2.4 -0.6
v 0.6 2.6 0.2
v 0.7 2.6 0.2
v 0.7 2.6 5.96046e-008
v 0.6 2.6 -0.2
v 0.7 2.6 -0.2
v 0.5 3 0.3
v 0.6 3 0.3
v 0.6 3 0.2
v 0.7 3 0.2
v 0.5 3 0.1
v 0.7 3 0.1
v 0.5 1.3 0.8
v 0.7 1.3 0.8
v 0.4 1.3 0.6
v 0.5 1.3 0.6
v 0.7 1.3 0.6
v 0.4 1.3 0.4
v 0.5 1.3 0.4
v 0.6 1.3 0.4
v 0.7 1.3 0.4
v 0.6 1.3 0.3
v 0.7 1.3 0.3
v 0.7 1.4 0.6
v 0.9 1.4 0.6
v 0.7 1.4 0.4
v 0.9 1.4 0.4
v 0.5 1.5 0.6
v 0.7 1.5 0.6
v 0.5 1.5 0.4
v 0.7 1.5 0.4
v 0.7 1.8 0.5
v 0.9 1.8 0.5
v 0.9 1.8 0.4
v 0.7 1.8 0.3
v 0.9 1.8 0.3
v 0.7 1.8 0.2
v 0.9 1.8 0.2
v 0.9 1.9 0.4
v 1.3 1.9 0.4
v 0.9 1.9 5.96046e-008
v 1.3 1.9 5.96046e-008
v 0.2 2.5 0.4
v 0.4 2.5 0.4
v 0.4 2.5 0.3
v 0.6 2.5 0.3
v 0.6 2.5 0.2
v 0.2 2.5 5.96046e-008
v 0.6 2.5 5.96046e-008
v 0.4 2.6 0.7
v 0.8 2.6 0.7
v 0.4 2.6 0.3
v 0.6 2.6 0.3
v 0.7 2.6 0.3
v 0.8 2.6 0.3
v 0.6 2.7 0.2
v 0.7 2.7 0.2
v 0.7 2.7 5.96046e-008
v 0.6 2.7 -0.2
v 0.7 2.7 -0.2
v 0.7 2.8 5.96046e-008
v 1.1 2.8 5.96046e-008
v 0.4 2.8 -0.2
v 0.7 2.8 -0.2
v 0.9 2.8 -0.2
v 0.7 2.8 -0.4
v 0.8 2.8 -0.4
v 0.9 2.8 -0.4
v 1.1 2.8 -0.4
v 0.4 2.8 -0.6
v 0.8 2.8 -0.6
v 0.7 3 -0.2
v 0.9 3 -0.2
v 0.7 3 -0.4
v 0.9 3 -0.4
v 0.5 3.2 0.3
v 0.7 3.2 0.3
v 0.5 3.2 0.1
v 0.7 3.2 0.1

# faces
f 3/1/1 2/1/1 1/1/1
f 4/1/1 2/1/1 3/1/1
f 7/1/1 6/1/1 5/1/1
f 8/1/1 6/1/1 7/1/1
f 13/1/1 10/1/1 9/1/1
f 15/1/1 13/1/1 9/1/1
f 15/1/1 14/1/1 13/1/1
f 16/1/1 14/1/1 15/1/1
f 17/1/1 12/1/1 11/1/1
f 18/1/1 12/1/1 17/1/1
f 21/1/1 20/1/1 19/1/1
f 22/1/1 20/1/1 21/1/1
f 24/1/1 23/1/1 22/1/1
f 25/1/1 23/1/1 24/1/1
f 28/1/1 27/1/1 26/1/1
f 29/1/1 27/1/1 28/1/1
f 33/2/1 31/2/1 30/2/1
f 34/2/1 33/2/1 32/2/1
f 35/2/1 31/2/1 33/2/1
f 35/2/1 33/2/1 34/2/1
f 36/2/1 31/2/1 35/2/1
f 37/2/1 31/2/1 36/2/1
f 40/2/1 39/2/1 38/2/1
f 41/2/1 39/2/1 40/2/1
f 43/2/1 41/2/1 40/2/1
f 43/2/1 42/2/1 41/2/1
f 44/2/1 42/2/1 43/2/1
f 45/2/1 43/2/1 40/2/1
f 46/2/1 43/2/1 45/2/1
f 49/1/1 48/1/1 47/1/1
f 50/1/1 48/1/1 49/1/1
f 53/1/1 52/1/1 51/1/1
f 54/1/1 52/1/1 53/1/1
f 57/1/1 56/1/1 55/1/1
f 58/1/1 56/1/1 57/1/1
f 60/1/1 59/1/1 58/1/1
f 61/1/1 59/1/1 60/1/1
f 64/1/1 63/1/1 62/1/1
f 65/1/1 63/1/1 64/1/1
f 66/1/1 63/1/1 65/1/1
f 67/1/1 63/1/1 66/1/1
f 70/1/1 63/1/1 67/1/1
f 71/1/1 69/1/1 68/1/1
f 71/1/1 70/1/1 69/1/1
f 72/1/1 63/1/1 70/1/1
f 72/1/1 70/1/1 71/1/1
f 73/1/2 74/1/2 75/1/2
f 75/1/2 74/1/2 76/1/2
f 77/1/2 78/1/2 81/1/2
f 81/1/2 78/1/2 82/1/2
f 79/1/2 80/1/2 83/1/2
f 83/1/2 80/1/2 84/1/2
f 87/1/2 88/1/2 89/1/2
f 85/2/2 86/2/2 91/2/2
f 87/1/2 89/1/2 92/1/2
f 92/1/2 89/1/2 93/1/2
f 90/2/2 91/2/2 94/2/2
f 91/2/2 86/2/2 95/2/2
f 94/2/2 91/2/2 95/2/2
f 96/1/2 97/1/2 98/1/2
f 98/1/2 97/1/2 99/1/2
f 95/2/2 86/2/2 100/2/2
f 100/2/2 86/2/2 101/2/2
f 101/2/2 86/2/2 102/2/2
f 103/2/2 104/2/2 105/2/2
f 105/2/2 104/2/2 106/2/2
f 106/2/2 104/2/2 107/2/2
f 106/2/2 107/2/2 109/2/2
f 107/2/2 108/2/2 109/2/2
f 109/2/2 108/2/2 110/2/2
f 106/2/2 109/2/2 111/2/2
f 111/2/2 109/2/2 112/2/2
f 111/1/2 112/1/2 114/1/2
f 112/1/2 113/1/2 114/1/2
f 114/1/2 113/1/2 115/1/2
f 116/1/2 117/1/2 120/1/2
f 120/1/2 117/1/2 121/1/2
f 118/1/2 119/1/2 122/1/2
f 122/1/2 119/1/2 123/1/2
f 124/1/2 125/1/2 126/1/2
f 126/1/2 125/1/2 127/1/2
f 128/1/2 129/1/2 130/1/2
f 130/1/2 129/1/2 131/1/2
f 132/1/2 133/1/2 134/1/2
f 134/1/2 133/1/2 135/1/2
f 136/1/2 137/1/2 138/1/2
f 138/1/2 137/1/2 139/1/2
f 140/1/2 141/1/2 142/1/2
f 142/1/2 141/1/2 143/1/2
f 146/1/3 145/1/3 144/1/3
f 147/1/3 145/1/3 146/1/3
f 150/1/3 149/1/3 148/1/3
f 151/1/3 149/1/3 150/1/3
f 154/1/3 153/1/3 152/1/3
f 155/1/3 153/1/3 154/1/3
f 158/1/3 156/1/3 155/1/3
f 159/1/3 156/1/3 158/1/3
f 160/1/3 156/1/3 159/1/3
f 161/1/3 158/1/3 157/1/3
f 161/1/3 159/1/3 158/1/3
f 162/1/3 159/1/3 161/1/3
f 165/1/3 164/1/3 163/1/3
f 166/1/3 164/1/3 165/1/3
f 169/1/3 168/1/3 167/1/3
f 170/1/3 168/1/3 169/1/3
f 171/1/3 169/1/3 167/1/3
f 172/1/3 169/1/3 171/1/3
f 177/1/3 174/1/3 173/1/3
f 177/1/3 176/1/3 175/1/3
f 177/1/3 175/1/3 174/1/3
f 178/1/3 176/1/3 177/1/3
f 187/1/3 180/1/3 179/1/3
f 188/2/3 182/2/3 181/2/3
f 189/2/3 182/2/3 188/2/3
f 190/2/3 185/2/3 184/2/3
f 190/2/3 184/2/3 183/2/3
f 191/2/3 185/2/3 190/2/3
f 192/2/3 185/2/3 191/2/3
f 193/2/3 185/2/3 192/2/3
f 194/2/3 187/2/3 186/2/3
f 195/1/3 180/1/3 187/1/3
f 195/2/3 187/2/3 194/2/3
f 196/1/3 180/1/3 195/1/3
f 201/1/3 198/1/3 197/1/3
f 201/1/3 200/1/3 199/1/3
f 201/1/3 199/1/3 198/1/3
f 202/1/3 200/1/3 201/1/3
f 205/1/3 204/1/3 203/1/3
f 206/1/3 204/1/3 205/1/3
f 207/1/3 205/1/3 203/1/3
f 208/1/3 205/1/3 207/1/3
f 209/1/3 204/1/3 206/1/3
f 210/1/3 204/1/3 209/1/3
f 212/1/3 211/1/3 210/1/3
f 213/1/3 211/1/3 212/1/3
f 214/1/4 215/1/4 216/1/4
f 216/1/4 215/1/4 217/1/4
f 218/1/4 219/1/4 220/1/4
f 218/1/4 220/1/4 222/1/4
f 220/1/4 221/1/4 222/1/4
f 222/1/4 221/1/4 223/1/4
f 223/1/4 221/1/4 224/1/4
f 224/1/4 221/1/4 226/1/4
f 226/1/4 221/1/4 227/1/4
f 227/1/4 221/1/4 228/1/4
f 225/1/4 226/1/4 229/1/4
f 226/1/4 227/1/4 229/1/4
f 229/1/4 227/1/4 230/1/4
f 231/1/4 232/1/4 233/1/4
f 233/1/4 232/1/4 234/1/4
f 237/1/4 238/1/4 239/1/4
f 239/1/4 238/1/4 240/1/4
f 235/1/4 236/1/4 241/1/4
f 241/1/4 236/1/4 242/1/4
f 243/2/4 244/2/4 249/2/4
f 244/2/4 245/2/4 249/2/4
f 245/2/4 246/2/4 249/2/4
f 249/2/4 246/2/4 250/2/4
f 250/2/4 246/2/4 251/2/4
f 251/2/4 246/2/4 252/2/4
f 247/2/4 248/2/4 253/2/4
f 253/2/4 248/2/4 254/2/4
f 250/2/4 251/2/4 255/2/4
f 255/2/4 251/2/4 256/2/4
f 257/1/4 258/1/4 259/1/4
f 259/1/4 258/1/4 260/1/4
f 261/1/4 262/1/4 263/1/4
f 263/1/4 262/1/4 264/1/4
f 265/1/4 266/1/4 267/1/4
f 267/1/4 266/1/4 268/1/4
f 269/1/4 270/1/4 272/1/4
f 272/1/4 270/1/4 273/1/4
f 271/1/4 272/1/4 273/1/4
f 273/1/4 270/1/4 274/1/4
f 271/1/4 273/1/4 275/1/4
f 275/1/4 273/1/4 276/1/4
f 277/1/4 278/1/4 279/1/4
f 279/1/4 278/1/4 280/1/4
f 283/2/5 282/2/5 281/2/5
f 284/2/5 282/2/5 283/2/5
f 288/1/5 286/1/5 285/1/5
f 289/1/5 286/1/5 288/1/5
f 290/1/5 286/1/5 289/1/5
f 291/1/5 288/1/5 287/1/5
f 291/1/5 289/1/5 288/1/5
f 292/1/5 289/1/5 291/1/5
f 296/2/5 294/2/5 293/2/5
f 297/1/5 295/1/5 294/1/5
f 297/2/5 294/2/5 296/2/5
f 298/1/5 295/1/5 297/1/5
f 299/2/5 297/2/5 296/2/5
f 300/2/5 297/2/5 299/2/5
f 303/1/5 302/1/5 301/1/5
f 304/1/5 302/1/5 303/1/5
f 307/1/5 306/1/5 305/1/5
f 308/1/5 307/1/5 305/1/5
f 309/1/5 307/1/5 308/1/5
f 312/2/5 311/2/5 310/2/5
f 313/2/5 311/2/5 312/2/5
f 316/1/5 315/1/5 314/1/5
f 317/1/5 316/1/5 314/1/5
f 318/1/5 317/1/5 314/1/5
f 319/1/5 317/1/5 318/1/5
f 322/1/5 321/1/5 320/1/5
f 323/1/5 321/1/5 322/1/5
f 324/1/5 321/1/5 323/1/5
f 325/1/5 321/1/5 324/1/5
f 326/1/5 321/1/5 325/1/5
f 330/1/5 328/1/5 327/1/5
f 331/1/5 328/1/5 330/1/5
f 331/1/5 330/1/5 329/1/5
f 332/1/5 328/1/5 331/1/5
f 333/1/5 331/1/5 329/1/5
f 334/1/5 331/1/5 333/1/5
f 337/2/5 336/2/5 335/2/5
f 338/2/5 337/2/5 335/2/5
f 339/2/5 337/2/5 338/2/5
f 342/1/5 341/1/5 340/1/5
f 344/1/5 342/1/5 340/1/5
f 344/1/5 343/1/5 342/1/5
f 345/1/5 343/1/5 344/1/5
f 346/1/6 347/1/6 349/1/6
f 349/1/6 347/1/6 350/1/6
f 348/1/6 349/1/6 351/1/6
f 351/1/6 349/1/6 352/1/6
f 353/2/6 354/2/6 355/2/6
f 355/2/6 354/2/6 356/2/6
f 357/1/6 358/1/6 359/1/6
f 359/1/6 358/1/6 360/1/6
f 361/1/6 362/1/6 363/1/6
f 363/1/6 362/1/6 364/1/6
f 365/1/6 366/1/6 367/1/6
f 365/1/6 367/1/6 368/1/6
f 368/1/6 367/1/6 369/1/6
f 368/2/6 369/2/6 370/2/6
f 370/2/6 369/2/6 371/2/6
f 372/1/6 373/1/6 374/1/6
f 374/1/6 373/1/6 375/1/6
f 376/1/6 377/1/6 378/1/6
f 378/1/6 379/1/6 380/1/6
f 376/1/6 378/1/6 381/1/6
f 378/1/6 380/1/6 381/1/6
f 381/1/6 380/1/6 382/1/6
f 383/1/6 384/1/6 385/1/6
f 385/1/6 384/1/6 386/1/6
f 386/1/6 384/1/6 387/1/6
f 387/1/6 384/1/6 388/1/6
f 389/2/6 390/2/6 391/2/6
f 389/2/6 391/2/6 392/2/6
f 392/2/6 391/2/6 393/2/6
f 394/1/6 395/1/6 397/1/6
f 397/1/6 395/1/6 398/1/6
f 396/1/6 397/1/6 399/1/6
f 398/1/6 395/1/6 401/1/6
f 401/1/6 395/1/6 402/1/6
f 399/1/6 400/1/6 403/1/6
f 396/1/6 399/1/6 403/1/6
f 403/1/6 400/1/6 404/1/6
f 405/1/6 406/1/6 407/1/6
f 407/1/6 406/1/6 408/1/6
f 409/1/6 410/1/6 411/1/6
f 411/1/6 410/1/6 412/1/6
